<svg width="94" height="16" viewBox="0 0 94 16" fill="none" xmlns="http://www.w3.org/2000/svg">
<g clip-path="url(#clip0_11_9)">
<path d="M5.10589 5.13815C6.6317 5.13815 7.90371 5.91126 8.4961 6.74683V5.34686H10.8273V15.7913H9.24377C9.14558 15.7913 9.04834 15.7723 8.95762 15.7352C8.8669 15.6982 8.78446 15.6439 8.71503 15.5754C8.6456 15.507 8.59052 15.4257 8.55296 15.3363C8.51539 15.2468 8.49607 15.151 8.4961 15.0541V14.3928C7.90371 15.2269 6.6317 16 5.10589 16C2.2043 16 0 13.5567 0 10.5692C0 7.58165 2.2043 5.13834 5.10589 5.13834M5.52983 7.22763C3.64382 7.22763 2.37256 8.68951 2.37256 10.5695C2.37256 12.4496 3.64382 13.9127 5.52983 13.9127C7.41585 13.9127 8.68823 12.4499 8.68823 10.5703C8.68823 8.69062 7.41641 7.22838 5.52983 7.22838" fill="white"/>
<path d="M13.4732 5.34723H15.8044V6.76758C16.4395 5.72349 17.6468 5.13852 19.0248 5.13852C21.4822 5.13852 23.0717 6.85136 23.0717 9.5045V15.7913H21.4884C21.2901 15.7912 21.1 15.7136 20.9598 15.5753C20.8196 15.4371 20.7408 15.2496 20.7407 15.0541V9.88039C20.7407 8.23076 19.8928 7.22781 18.5377 7.22781C16.9909 7.22781 15.8044 8.41833 15.8044 10.6529V15.7913H14.2203C14.0221 15.7911 13.8321 15.7134 13.692 15.5752C13.5519 15.437 13.4732 15.2495 13.4732 15.0541V5.34723Z" fill="white"/>
<path d="M30.0211 5.13816C31.5464 5.13816 32.8184 5.91127 33.4113 6.74684V0.125305H35.741V15.7913H34.1584C34.0603 15.7913 33.9631 15.7722 33.8724 15.7351C33.7818 15.6981 33.6994 15.6438 33.63 15.5753C33.5606 15.5069 33.5056 15.4256 33.4681 15.3362C33.4306 15.2468 33.4113 15.1509 33.4113 15.0542V14.3928C32.8184 15.2269 31.5464 16 30.0211 16C27.1182 16 24.9147 13.5567 24.9147 10.5692C24.9147 7.58167 27.1182 5.13835 30.0211 5.13835M30.4453 7.22764C28.5598 7.22764 27.2884 8.68952 27.2884 10.5696C27.2884 12.4496 28.5598 13.912 30.4453 13.912C32.3307 13.912 33.6012 12.4485 33.6012 10.5694C33.6012 8.69026 32.33 7.22764 30.4453 7.22764Z" fill="white"/>
<path d="M38.3885 5.34724H40.7197V7.20633C40.9236 6.63459 41.3018 6.13902 41.8026 5.78751C42.3033 5.43601 42.9021 5.24578 43.5168 5.24289C43.8226 5.24069 44.1278 5.2687 44.428 5.32648V7.68658C44.0524 7.5617 43.6587 7.49821 43.2624 7.49863C41.9276 7.49863 40.7191 8.60629 40.7191 10.695V15.7922H39.1358C38.9376 15.792 38.7476 15.7143 38.6075 15.5761C38.4674 15.4379 38.3887 15.2505 38.3887 15.0551L38.3885 5.34724Z" fill="white"/>
<path d="M50.7107 16C49.6231 15.9917 48.5623 15.6662 47.6621 15.0644C46.7618 14.4627 46.0624 13.6117 45.652 12.6186C45.2416 11.6255 45.1386 10.5349 45.3559 9.48423C45.5732 8.43352 46.1012 7.46976 46.8732 6.71443C47.6452 5.9591 48.6268 5.44601 49.6941 5.23984C50.7615 5.03366 51.8668 5.14363 52.8709 5.55588C53.8749 5.96812 54.7327 6.6642 55.3361 7.55637C55.9396 8.44853 56.2616 9.49685 56.2616 10.5692C56.2671 11.2874 56.127 11.9995 55.8495 12.6636C55.5719 13.3277 55.1626 13.9304 54.6455 14.4364C54.1283 14.9423 53.5139 15.3413 52.8382 15.6098C52.1625 15.8783 51.4392 16.011 50.7107 16ZM50.7107 13.8703C52.5751 13.8703 53.8892 12.4283 53.8892 10.5699C53.8892 8.71157 52.5751 7.26934 50.7107 7.26934C48.8255 7.26934 47.5119 8.7112 47.5119 10.5699C47.5119 12.4286 48.8255 13.8703 50.7107 13.8703Z" fill="white"/>
<path d="M59.3157 3.07055C58.9027 3.07055 58.5066 2.9088 58.2146 2.62088C57.9225 2.33296 57.7585 1.94245 57.7585 1.53527C57.7585 1.12809 57.9225 0.73759 58.2146 0.44967C58.5066 0.16175 58.9027 0 59.3157 0C59.7287 0 60.1248 0.16175 60.4168 0.44967C60.7088 0.73759 60.8729 1.12809 60.8729 1.53527C60.8729 1.94245 60.7088 2.33296 60.4168 2.62088C60.1248 2.9088 59.7287 3.07055 59.3157 3.07055ZM58.1512 5.34686H60.4811V15.7913H58.8985C58.7003 15.7911 58.5103 15.7134 58.3701 15.5752C58.23 15.437 58.1513 15.2496 58.1512 15.0541V5.34686Z" fill="white"/>
<path d="M67.5022 5.13816C69.0278 5.13816 70.2992 5.91127 70.8927 6.74684V0.125305H73.2239V15.7913H71.6412C71.543 15.7914 71.4457 15.7724 71.3549 15.7354C71.2642 15.6984 71.1817 15.6441 71.1123 15.5756C71.0428 15.5071 70.9877 15.4258 70.9502 15.3364C70.9127 15.2469 70.8934 15.151 70.8935 15.0542V14.3928C70.3 15.2269 69.0285 16 67.5029 16C64.6011 16 62.3976 13.5567 62.3976 10.5692C62.3976 7.58167 64.6011 5.13835 67.5029 5.13835M67.9268 7.22764C66.0421 7.22764 64.7709 8.68952 64.7709 10.5696C64.7709 12.4496 66.0421 13.912 67.9268 13.912C69.8115 13.912 71.0828 12.4485 71.0828 10.5694C71.0828 8.69026 69.8114 7.22746 67.9253 7.22746" fill="white"/>
<path d="M77.2749 6.67566H74.9947V5.28978H77.2749V2.36955H78.7662V5.28978H81.877V6.67566H78.7662V12.7467C78.7662 14.0277 79.3418 14.5318 80.5345 14.5318C80.9923 14.534 81.4468 14.4562 81.877 14.302V15.625C81.3737 15.8143 80.8384 15.9071 80.2999 15.8984C78.4894 15.8984 77.2749 14.8684 77.2749 12.8727V6.67566Z" fill="white"/>
<path d="M94 5.2894L89.015 15.7926H87.8432L82.8574 5.2894H84.5193L88.4183 13.6286L92.317 5.2894H94Z" fill="white"/>
</g>
<defs>
<clipPath id="clip0_11_9">
<rect width="94" height="16" fill="white"/>
</clipPath>
</defs>
</svg>
