<svg width="51" height="22" viewBox="0 0 51 22" fill="none" xmlns="http://www.w3.org/2000/svg">
<path d="M22.2967 10.9981C22.3071 17.0582 17.3177 21.9931 11.1732 22C4.99644 22.007 0.00870937 17.1001 1.12919e-05 11.0079C-0.00866632 4.9298 4.9852 -0.00159544 11.1474 3.87206e-07C17.3095 0.00159622 22.2861 4.91091 22.2967 10.9981ZM11.6028 2.78258V2.67552C11.6028 2.48026 11.597 2.28478 11.6052 2.08987C11.6093 1.99089 11.5749 1.96548 11.4796 1.96309C10.8349 1.94462 10.19 1.99217 9.55529 2.10498C7.82749 2.41784 6.28672 3.13154 5.00501 4.31735C2.54335 6.59476 1.5821 9.39853 2.15229 12.6835C2.45928 14.4522 3.28938 15.9799 4.55564 17.2646C6.14297 18.875 8.07922 19.7871 10.3469 20.0044C11.3703 20.1025 12.3866 20.0422 13.3814 19.7866C16.3103 19.0342 18.4117 17.2955 19.6584 14.5727C20.226 13.333 20.4496 12.0191 20.403 10.6604C20.4014 10.615 20.3933 10.5699 20.3885 10.5266H13.8935V11.3551H19.5465C19.4718 14.9188 16.6417 18.6501 12.1551 19.1598C7.52226 19.6861 3.46081 16.4345 2.90112 12.0506C2.63338 9.95364 3.0978 8.01123 4.35126 6.29555C6.12453 3.86821 8.57771 2.75141 11.6028 2.78258ZM13.876 14.7982H11.6019V11.788C11.6019 10.014 11.6025 8.24002 11.6037 6.46602C11.6038 6.37611 11.583 6.34207 11.4854 6.34548C11.2777 6.35278 11.0693 6.35197 10.8615 6.34575C10.7712 6.34304 10.7466 6.36975 10.7466 6.45905C10.749 9.48192 10.7497 12.5048 10.7488 15.5277C10.7488 15.563 10.7523 15.5984 10.754 15.6311H13.876V14.7982ZM7.75498 8.85498C8.0965 8.85623 8.42456 8.72361 8.66706 8.48625C8.90956 8.24889 9.04667 7.92621 9.04825 7.58912C9.05029 6.88358 8.47643 6.31625 7.75537 6.31074C7.05207 6.30539 6.46899 6.88138 6.46733 7.58314C6.46794 7.9201 6.60377 8.24311 6.84509 8.48145C7.08642 8.71979 7.41358 8.85417 7.75498 8.85498Z" fill="white"/>
<path d="M48.5265 7.78961C48.3885 7.64247 48.2587 7.49533 48.1197 7.35732C47.5642 6.80611 46.8861 6.49757 46.1137 6.37637C45.6151 6.29903 45.109 6.28004 44.6059 6.31981C44.1017 6.35841 43.6087 6.45111 43.1423 6.65493C42.3329 7.00872 41.8195 7.62503 41.5216 8.43244C41.3518 8.89259 41.2624 9.36962 41.2117 9.85568C41.1501 10.4483 41.1383 11.0449 41.1765 11.6394C41.2212 12.3391 41.3214 13.0289 41.611 13.6785C41.9819 14.5103 42.6181 15.042 43.4964 15.2976C44.2323 15.5117 44.9849 15.5339 45.7436 15.4828C46.3209 15.4458 46.8921 15.344 47.446 15.1794C47.5512 15.1478 47.589 15.1011 47.5882 14.9896C47.5829 14.2456 47.5856 13.5017 47.5854 12.7577C47.5854 12.62 47.5848 12.6198 47.4437 12.6197C46.6319 12.6197 45.8202 12.6197 45.0085 12.6197H44.8783V9.99456H50.6227C50.6246 10.0311 50.628 10.0668 50.628 10.1026C50.6282 12.3277 50.629 14.5529 50.6303 16.778C50.6304 16.8571 50.6014 16.899 50.5385 16.9391C49.9435 17.3185 49.2926 17.572 48.617 17.7671C47.9175 17.9659 47.2016 18.1036 46.4776 18.1786C45.8577 18.2471 45.2335 18.2718 44.61 18.2523C43.5425 18.2169 42.4969 18.0606 41.5058 17.6427C40.0596 17.033 39.0846 15.9807 38.5256 14.5404C38.2873 13.9262 38.1427 13.2894 38.0514 12.6386C37.942 11.8593 37.9226 11.0762 37.956 10.2929C37.9992 9.28096 38.1652 8.28942 38.5493 7.3431C39.2365 5.6498 40.4755 4.5483 42.2342 4.00818C42.7913 3.83708 43.3622 3.73487 43.9431 3.68061C44.5098 3.62588 45.0798 3.61372 45.6484 3.64425C46.742 3.70616 47.801 3.91089 48.7848 4.41111C49.4747 4.76191 50.0587 5.23759 50.521 5.85544C50.5542 5.89988 50.5873 5.93422 50.5258 5.98951C49.8655 6.58369 49.2066 7.17935 48.5492 7.77652C48.542 7.78151 48.5344 7.78588 48.5265 7.78961Z" fill="white"/>
<path d="M27.308 10.9387C27.308 8.62249 27.308 6.30625 27.308 3.99002C27.308 3.84153 27.308 3.84138 27.455 3.84138C28.4612 3.84138 29.4675 3.84138 30.4738 3.84138C30.6129 3.84138 30.6129 3.84159 30.6129 3.97695C30.6129 7.69035 30.6129 11.4037 30.6129 15.1171C30.6129 15.1541 30.6037 15.1948 30.6162 15.2271C30.6309 15.258 30.6567 15.2824 30.6886 15.2954C30.718 15.3071 30.7557 15.2983 30.7899 15.2983H37.3695C37.5148 15.2983 37.5151 15.2983 37.5151 15.4385C37.5151 16.2667 37.5134 17.0949 37.5173 17.9232C37.5178 18.0242 37.4919 18.0534 37.3863 18.0533C34.0675 18.0504 30.7487 18.0503 27.4299 18.053C27.3291 18.053 27.306 18.0233 27.3061 17.9278C27.3086 15.5981 27.3092 13.2684 27.308 10.9387Z" fill="white"/>
</svg>
