<svg width="94" height="22" viewBox="0 0 94 22" fill="none" xmlns="http://www.w3.org/2000/svg">
<path d="M14.7973 11.58C14.8079 10.7454 15.0295 9.92703 15.4415 9.20108C15.8534 8.47513 16.4423 7.86518 17.1533 7.428C16.7017 6.78277 16.1058 6.25175 15.413 5.87714C14.7201 5.50253 13.9495 5.29464 13.1623 5.27C11.4833 5.095 9.85531 6.28 8.99931 6.28C8.12731 6.28 6.81031 5.292 5.39131 5.322C4.4737 5.35152 3.57938 5.61822 2.79549 6.09613C2.0116 6.57403 1.36487 7.24684 0.918308 8.049C-1.01569 11.398 0.427308 16.319 2.27931 19.026C3.20631 20.351 4.28931 21.831 5.70731 21.779C7.09431 21.721 7.60731 20.894 9.28631 20.894C10.9653 20.894 11.4313 21.779 12.8773 21.746C14.3663 21.721 15.3033 20.414 16.1983 19.076C16.8645 18.1306 17.3768 17.0856 17.7163 15.98C16.8515 15.6142 16.1136 15.0019 15.5945 14.2194C15.0754 13.437 14.7981 12.519 14.7973 11.58Z" fill="white"/>
<path d="M12.0653 3.491C12.8774 2.51695 13.2775 1.26447 13.1803 0C11.9403 0.130272 10.7949 0.722974 9.9723 1.66C9.16047 2.58437 8.74898 3.79331 8.8283 5.021C9.44843 5.0274 10.0619 4.89303 10.6226 4.62801C11.1833 4.36299 11.6766 3.97424 12.0653 3.491Z" fill="white"/>
<path d="M31.873 14.779H27.142L26.005 18.139H24L28.484 5.72098H30.567L35.05 18.139H33.011L31.873 14.779ZM27.63 13.23H31.382L29.532 7.78298H29.483L27.63 13.23Z" fill="white"/>
<path d="M44.733 13.609C44.733 16.422 43.227 18.23 40.954 18.23C40.3784 18.2599 39.8061 18.1272 39.3025 17.8471C38.7988 17.5669 38.3842 17.1507 38.106 16.646H38.063V21.13H36.204V9.08098H38.004V10.587H38.038C38.3291 10.0846 38.7509 9.67056 39.2585 9.38882C39.7662 9.10709 40.3407 8.96822 40.921 8.98698C43.218 8.98698 44.733 10.803 44.733 13.609ZM42.823 13.609C42.823 11.776 41.875 10.571 40.43 10.571C39.01 10.571 38.055 11.801 38.055 13.609C38.055 15.433 39.01 16.655 40.43 16.655C41.873 16.655 42.823 15.458 42.823 13.609Z" fill="white"/>
<path d="M54.698 13.609C54.698 16.422 53.192 18.23 50.919 18.23C50.3438 18.2595 49.7719 18.1266 49.2686 17.8465C48.7653 17.5664 48.351 17.1504 48.073 16.646H48.03V21.13H46.173V9.08098H47.973V10.587H48.007C48.2981 10.0846 48.7199 9.67056 49.2275 9.38882C49.7352 9.10709 50.3097 8.96822 50.89 8.98698C53.183 8.98698 54.698 10.803 54.698 13.609ZM52.787 13.609C52.787 11.776 51.84 10.571 50.395 10.571C48.975 10.571 48.02 11.801 48.02 13.609C48.02 15.433 48.975 16.655 50.395 16.655C51.84 16.655 52.787 15.455 52.787 13.609Z" fill="white"/>
<path d="M56.202 5.71698H58.062V18.139H56.202V5.71698Z" fill="white"/>
<path d="M67.738 15.476C67.488 17.119 65.887 18.247 63.838 18.247C61.204 18.247 59.57 16.483 59.57 13.652C59.57 10.821 61.213 8.96999 63.76 8.96999C66.26 8.96999 67.84 10.691 67.84 13.436V14.073H61.447V14.185C61.3917 14.8078 61.5862 15.4271 61.9875 15.9066C62.3888 16.3861 62.9641 16.6866 63.587 16.742C63.6867 16.7505 63.7869 16.7529 63.887 16.749C64.3253 16.7891 64.7649 16.687 65.1406 16.4577C65.5164 16.2284 65.8082 15.8842 65.973 15.476H67.738ZM61.455 12.776H65.982C65.9985 12.4901 65.9584 12.2038 65.8641 11.9334C65.7698 11.663 65.6231 11.4139 65.4324 11.2002C65.2418 10.9866 65.0108 10.8127 64.7528 10.6884C64.4948 10.5641 64.2149 10.4919 63.929 10.476C63.873 10.476 63.817 10.476 63.761 10.476C63.46 10.4741 63.1616 10.5316 62.8828 10.6451C62.604 10.7586 62.3503 10.9259 62.1362 11.1374C61.922 11.3489 61.7517 11.6006 61.6348 11.8779C61.5179 12.1553 61.4568 12.453 61.455 12.754V12.776Z" fill="white"/>
<path d="M76.164 18.139V7.37698H72.364V5.71698H81.89V7.37698H78.092V18.139H76.164Z" fill="white"/>
<path d="M86.973 18.139L82.54 5.71698H84.632L88.014 15.966H88.066L91.456 5.71698H93.513L89.081 18.139H86.973Z" fill="white"/>
</svg>
