<svg width="139" height="24" viewBox="0 0 139 24" fill="none" xmlns="http://www.w3.org/2000/svg">
<g clip-path="url(#clip0_12_137)">
<path opacity="0.5" d="M72.0775 8.47395V16.8522L65.5789 12.1668L72.0775 8.47395Z" fill="white"/>
<path opacity="0.4" d="M59.1138 8.47395V16.8522L65.6125 12.1668L59.1138 8.47395Z" fill="white"/>
<path opacity="0.6" d="M65.6125 0L57.2119 4.82685L65.6125 4.80329V0Z" fill="white"/>
<path opacity="0.4" d="M65.6062 0L74.0047 4.82685L65.6062 4.80329V0Z" fill="white"/>
<path opacity="0.5" d="M65.6125 12.1675L57.2301 18.1576H65.6125V12.1675Z" fill="white"/>
<path opacity="0.2" d="M65.6062 12.1675L73.9956 18.1576H65.6062V12.1675Z" fill="white"/>
<path opacity="0.2" d="M57.2301 18.1576H65.6062V24L57.2301 18.1576Z" fill="white"/>
<path opacity="0.4" d="M73.9703 18.1576H65.6062V24L73.9703 18.1576Z" fill="white"/>
<path opacity="0.4" d="M57.2301 4.80472H65.6314V9.5623L57.2301 4.80472Z" fill="white"/>
<path opacity="0.6" d="M74.0138 4.80472H65.6146V9.5623L74.0138 4.80472Z" fill="white"/>
<path d="M73.9942 18.1826V4.80472L65.6125 9.5623L57.2301 4.80472V18.1762L59.1138 19.4788V8.47395L65.6125 12.1339L72.0775 8.46324V19.4788L73.9942 18.1826Z" fill="white"/>
<path d="M98.7014 13.3101C99.4069 13.0432 100.027 12.5834 100.493 11.9811C101.07 11.2341 101.377 10.3063 101.359 9.35519C101.366 8.74188 101.253 8.1333 101.027 7.56483C100.805 7.01823 100.462 6.53171 100.024 6.14371C99.5559 5.73743 99.0115 5.43271 98.424 5.24818C97.7395 5.03816 97.0274 4.93652 96.3126 4.94682H90.8843V19.5945H92.7848V6.8043H96.3126C97.1435 6.75115 97.9679 6.98374 98.6537 7.46486C99.1424 7.96631 99.4166 8.64444 99.4166 9.35126C99.4166 10.0581 99.1424 10.7362 98.6537 11.2376C97.9693 11.7222 97.1442 11.9565 96.3126 11.9025H93.9855V13.7436H96.7946L99.4635 19.5945H101.555L98.7014 13.3101Z" fill="white"/>
<path d="M102.98 4.94682V6.82572H107.304V19.5988H109.208V6.82572H113.552V4.94682H102.98Z" fill="white"/>
<path d="M83.0946 4.94682H81.4925L75.978 19.5988H77.9857L79.7223 15.0083L84.9481 15.0326L86.6833 19.5988H88.6714L83.0946 4.94682ZM80.3478 13.2787L82.2897 8.07902L84.2714 13.2822L80.3478 13.2787Z" fill="white"/>
<path d="M54.3895 13.8928C54.1965 13.417 53.9165 12.9829 53.5643 12.6138C53.202 12.2384 52.7796 11.9285 52.3153 11.6976C51.8163 11.4535 51.2815 11.2946 50.7321 11.227L48.1549 10.8999C47.8788 10.863 47.6069 10.7986 47.343 10.7078C47.1163 10.6298 46.9051 10.5111 46.7196 10.3571C46.5442 10.2028 46.4031 10.0122 46.3056 9.79796C46.1917 9.53018 46.1383 9.23976 46.1493 8.94813C46.1364 8.62187 46.2089 8.29797 46.3595 8.00976C46.506 7.74157 46.6954 7.50021 46.9199 7.29562C47.211 7.03968 47.5552 6.85414 47.9265 6.75287C48.3458 6.63409 48.779 6.57451 49.2141 6.57578C49.7486 6.56914 50.2796 6.66433 50.7797 6.85644C51.1065 6.98253 51.4054 7.17378 51.6588 7.41902C51.9123 7.66426 52.1152 7.95857 52.2557 8.28471C52.3642 8.55113 52.437 8.83119 52.4722 9.11738L52.531 9.50588H54.4287L54.3888 9.01312C54.3544 8.50503 54.229 8.00765 54.0189 7.54558C53.8161 7.11747 53.5545 6.72094 53.2421 6.36795C52.7594 5.8257 52.1572 5.40813 51.4852 5.14964C50.1223 4.58879 48.6066 4.54847 47.2169 5.03609C46.5988 5.24381 46.0292 5.57875 45.5434 6.02017C45.1624 6.37019 44.8422 6.78329 44.5963 7.24206C44.3243 7.76838 44.1892 8.35701 44.204 8.95171C44.1938 9.48921 44.2891 10.0233 44.4842 10.5228C44.6682 10.9722 44.9432 11.3769 45.2912 11.7104C45.6367 12.0481 46.0426 12.3147 46.487 12.496C46.9539 12.6852 47.4422 12.814 47.9405 12.8795L50.4778 13.2072C50.8109 13.2426 51.1358 13.3348 51.4389 13.4801C51.7034 13.609 51.9449 13.782 52.1535 13.9921C52.3396 14.1839 52.4863 14.4116 52.585 14.6619C52.6834 14.9049 52.7334 15.1654 52.7321 15.4282C52.7409 15.7545 52.6807 16.079 52.5556 16.3794C52.437 16.6399 52.2722 16.8757 52.0694 17.075C51.7269 17.3946 51.3149 17.6268 50.8673 17.7527C50.3524 17.9019 49.8195 17.9766 49.2841 17.9748C48.7734 17.9773 48.266 17.8911 47.7836 17.7199C47.3442 17.5693 46.9437 17.3199 46.6117 16.99C46.3803 16.7415 46.1858 16.4597 46.0344 16.1538C45.8794 15.8342 45.7788 15.4901 45.7367 15.1361L45.6835 14.7384H43.7508L43.7956 15.2383C43.8509 15.808 44.0023 16.3636 44.2432 16.8808C44.4724 17.3793 44.7782 17.8373 45.149 18.2376C45.6543 18.7871 46.2805 19.2062 46.9759 19.4602C47.7174 19.7311 48.5001 19.8658 49.2876 19.858C50.0768 19.8621 50.8618 19.7417 51.6148 19.5009C52.3081 19.2748 52.9427 18.8923 53.4711 18.3819C53.8252 18.0255 54.1177 17.6107 54.3363 17.155C54.5774 16.6123 54.6949 16.021 54.6802 15.4254C54.6822 14.9009 54.5829 14.3811 54.3881 13.8957" fill="white"/>
<path d="M132.178 19.6488H133.443L139 4.88327H137.549L132.821 17.5471L127.989 4.88327H117.405V6.23013H121.951V19.6488H123.33V6.23013H127.074L132.178 19.6488Z" fill="white"/>
<path d="M72.0775 8.46252V19.4788L73.9942 18.1826V4.80328L65.6125 9.56229V12.1339L72.0775 8.46252Z" fill="white"/>
<path d="M1.18947 11.8104C0.838092 11.6927 0.535709 11.4581 0.330907 11.1441C0.126106 10.8302 0.0307762 10.4552 0.0602397 10.0793V9.89936C0.0602397 8.71604 0.715226 8.06117 2.0294 8.06117H2.68019C3.71975 8.06117 4.36142 8.5168 4.36142 9.61371C4.36787 9.6792 4.35996 9.74534 4.33827 9.80733C4.31657 9.86932 4.28163 9.92562 4.23598 9.97216C4.19032 10.0187 4.1351 10.0543 4.07429 10.0764C4.01348 10.0986 3.94861 10.1066 3.88437 10.1C3.82046 10.1048 3.7563 10.0955 3.69622 10.0728C3.63615 10.05 3.58156 10.0144 3.53619 9.96828C3.49081 9.92215 3.45568 9.86661 3.43321 9.80543C3.41073 9.74426 3.40142 9.67888 3.40591 9.61371C3.40591 9.18166 3.10539 8.99026 2.68158 8.99026H2.0301C1.31697 8.99026 1.01366 9.26593 1.01366 9.89936V10.0793C1.00796 10.2583 1.05957 10.4342 1.16068 10.5806C1.26179 10.7269 1.40689 10.8358 1.57406 10.8906L3.42483 11.5697C3.79317 11.6828 4.11233 11.9212 4.32906 12.2452C4.54578 12.5692 4.64696 12.9592 4.61571 13.3501V13.7193C4.64004 13.986 4.60537 14.2549 4.51425 14.5062C4.42313 14.7575 4.27787 14.9847 4.08919 15.1711C3.90052 15.3576 3.67322 15.4985 3.42404 15.5835C3.17485 15.6686 2.91012 15.6955 2.64936 15.6625H1.67495C0.639583 15.6625 -0.000687753 15.209 -0.000687753 14.1099C-0.00730679 14.0445 0.000460504 13.9785 0.0220799 13.9166C0.0436993 13.8547 0.0786178 13.7985 0.124267 13.7521C0.169916 13.7057 0.225156 13.6702 0.285949 13.6484C0.346742 13.6265 0.411556 13.6188 0.475658 13.6257C0.539093 13.6211 0.602755 13.6305 0.66231 13.6533C0.721866 13.676 0.775917 13.7116 0.820786 13.7575C0.865655 13.8035 0.900292 13.8587 0.922332 13.9195C0.944371 13.9803 0.953287 14.0453 0.948498 14.1099C0.948498 14.5541 1.25254 14.7334 1.67495 14.7334H2.64936C2.78604 14.7544 2.92563 14.743 3.05725 14.7C3.18888 14.6569 3.30897 14.5834 3.40813 14.4852C3.50729 14.3871 3.58282 14.2668 3.62886 14.134C3.6749 14.0011 3.69019 13.8592 3.67352 13.7193V13.3501C3.69229 13.1718 3.65125 12.9923 3.55711 12.8408C3.46298 12.6893 3.32127 12.5748 3.15512 12.516L1.18947 11.8104Z" fill="white"/>
<path d="M8.00341 10.0636C8.22036 10.0451 8.43867 10.074 8.64381 10.1483C8.84894 10.2227 9.03617 10.3408 9.19297 10.4947C9.34977 10.6487 9.47254 10.835 9.5531 11.0412C9.63366 11.2474 9.67015 11.4687 9.66012 11.6904V15.069C9.66447 15.1339 9.65514 15.199 9.63274 15.26C9.61034 15.3209 9.57538 15.3762 9.53025 15.4222C9.48512 15.4682 9.43086 15.5039 9.37109 15.5267C9.31132 15.5495 9.24745 15.5591 9.18378 15.5546H7.27696C6.32636 15.5546 5.7127 15.1011 5.7127 14.1263V13.3137C5.7127 12.3439 6.32636 11.9011 7.27696 11.9011H8.72844V11.6997C8.74082 11.5992 8.73066 11.4971 8.69875 11.4012C8.66684 11.3052 8.614 11.2179 8.54421 11.1458C8.47441 11.0737 8.38949 11.0187 8.29582 10.9848C8.20214 10.951 8.10216 10.9393 8.00341 10.9506H6.66612C6.60631 10.9548 6.54628 10.9464 6.48978 10.926C6.43327 10.9056 6.38147 10.8735 6.33763 10.8319C6.29379 10.7902 6.25883 10.7397 6.23493 10.6837C6.21103 10.6276 6.19869 10.5671 6.19869 10.506C6.19869 10.4449 6.21103 10.3844 6.23493 10.3284C6.25883 10.2723 6.29379 10.2219 6.33763 10.1802C6.38147 10.1385 6.43327 10.1064 6.48978 10.086C6.54628 10.0656 6.60631 10.0572 6.66612 10.0615L8.00341 10.0636ZM8.72844 14.6669V12.7881H7.27696C6.85315 12.7881 6.6465 13.0023 6.6465 13.3379V14.1285C6.6465 14.4448 6.85665 14.6669 7.27696 14.6669H8.72844Z" fill="white"/>
<path d="M16.142 11.9868C16.1617 11.8502 16.1501 11.7109 16.108 11.5797C16.0659 11.4485 15.9945 11.3291 15.8994 11.2309C15.8044 11.1326 15.6882 11.0582 15.5601 11.0135C15.432 10.9689 15.2955 10.9551 15.1613 10.9734H14.5693V15.174C14.5718 15.238 14.5615 15.3019 14.5391 15.3618C14.5168 15.4218 14.4828 15.4764 14.4392 15.5226C14.3956 15.5688 14.3433 15.6056 14.2854 15.6307C14.2276 15.6558 14.1653 15.6687 14.1024 15.6687C14.0396 15.6687 13.9773 15.6558 13.9195 15.6307C13.8616 15.6056 13.8093 15.5688 13.7657 15.5226C13.7221 15.4764 13.6881 15.4218 13.6658 15.3618C13.6434 15.3019 13.6331 15.238 13.6355 15.174V10.9734H12.0622V15.174C12.0646 15.2379 12.0544 15.3017 12.032 15.3616C12.0097 15.4214 11.9758 15.476 11.9322 15.5221C11.8887 15.5683 11.8365 15.605 11.7787 15.63C11.7209 15.6551 11.6588 15.668 11.596 15.668C11.5332 15.668 11.4711 15.6551 11.4133 15.63C11.3555 15.605 11.3033 15.5683 11.2598 15.5221C11.2163 15.476 11.1823 15.4214 11.16 15.3616C11.1376 15.3017 11.1274 15.2379 11.1298 15.174V10.5514C11.1233 10.4866 11.1309 10.4212 11.152 10.3598C11.1731 10.2984 11.2073 10.2425 11.252 10.1961C11.2968 10.1498 11.3511 10.114 11.411 10.0915C11.4708 10.0689 11.5349 10.0602 11.5985 10.0658H15.162C15.4183 10.0331 15.6786 10.0601 15.9233 10.1446C16.1679 10.2292 16.3906 10.3692 16.5746 10.554C16.7586 10.7389 16.8992 10.9638 16.9858 11.2119C17.0723 11.4601 17.1026 11.725 17.0744 11.9868V15.174C17.0744 15.2997 17.0254 15.4204 16.9382 15.5093C16.8509 15.5982 16.7326 15.6482 16.6093 15.6482C16.4859 15.6482 16.3676 15.5982 16.2803 15.5093C16.1931 15.4204 16.1441 15.2997 16.1441 15.174L16.142 11.9868Z" fill="white"/>
<path d="M19.9108 15.6603C18.9602 15.6603 18.3907 15.2683 18.3907 14.3827C18.3907 14.1078 18.4957 13.8871 18.8523 13.8871C19.2089 13.8871 19.2894 14.1078 19.3104 14.3827C19.3209 14.6255 19.5367 14.8055 19.9108 14.8055H20.7514C21.2488 14.8055 21.4022 14.5513 21.4022 14.2342V13.865C21.4066 13.7532 21.3702 13.6438 21.3001 13.5578C21.23 13.4718 21.1311 13.4153 21.0225 13.3993L19.3952 12.9366C19.1104 12.8735 18.8578 12.7068 18.6847 12.4678C18.5116 12.2287 18.4297 11.9336 18.4544 11.6376V11.3855C18.4544 10.4142 18.9924 9.9572 20.0278 9.9572H20.6064C21.5598 9.9572 22.1314 10.3464 22.1314 11.2334C22.1314 11.5083 22.0284 11.729 21.6733 11.729C21.3181 11.729 21.2299 11.5083 21.2074 11.2334C21.1969 10.9899 20.9889 10.8113 20.6169 10.8113H20.0278C19.5206 10.8113 19.3658 11.0648 19.3658 11.3826V11.6347C19.3636 11.7459 19.4008 11.8541 19.4706 11.9396C19.5403 12.0251 19.6379 12.0822 19.7455 12.1003L21.3622 12.5538C21.6517 12.6133 21.9092 12.7799 22.0854 13.0214C22.2615 13.263 22.3438 13.5624 22.3164 13.8621V14.2313C22.3164 15.2033 21.7679 15.6596 20.7514 15.6596L19.9108 15.6603Z" fill="white"/>
<path d="M24.4886 13.6329C24.4692 13.7694 24.481 13.9086 24.5232 14.0396C24.5654 14.1707 24.6368 14.29 24.7319 14.3881C24.8269 14.4863 24.9429 14.5607 25.0709 14.6055C25.1988 14.6503 25.3352 14.6642 25.4694 14.6463H26.7114V10.4443C26.7035 10.3796 26.71 10.3139 26.7304 10.2521C26.7508 10.1903 26.7846 10.134 26.8293 10.0873C26.874 10.0407 26.9284 10.0049 26.9885 9.98261C27.0486 9.96033 27.1129 9.95216 27.1765 9.95866C27.2398 9.95414 27.3032 9.96369 27.3624 9.98664C27.4217 10.0096 27.4753 10.0454 27.5196 10.0916C27.5639 10.1378 27.5979 10.1933 27.6191 10.2542C27.6403 10.3151 27.6482 10.3799 27.6424 10.4443V15.0704C27.6488 15.1348 27.6412 15.1997 27.6202 15.2607C27.5991 15.3217 27.5652 15.3773 27.5207 15.4234C27.4762 15.4695 27.4223 15.505 27.3628 15.5274C27.3033 15.5499 27.2397 15.5587 27.1765 15.5532H25.4694C25.2128 15.5862 24.9522 15.5596 24.7072 15.4753C24.4622 15.391 24.2391 15.2512 24.0547 15.0664C23.8703 14.8816 23.7293 14.6567 23.6424 14.4084C23.5554 14.1601 23.5248 13.895 23.5528 13.6329V10.4443C23.5461 10.3799 23.5534 10.3149 23.5741 10.2538C23.5949 10.1926 23.6286 10.1369 23.6729 10.0906C23.7171 10.0442 23.7709 10.0084 23.8303 9.98555C23.8897 9.96276 23.9532 9.95358 24.0165 9.95866C24.0803 9.95186 24.1449 9.9598 24.2053 9.98191C24.2657 10.004 24.3205 10.0398 24.3655 10.0864C24.4106 10.1331 24.4447 10.1895 24.4654 10.2514C24.4861 10.3134 24.4929 10.3793 24.4851 10.4443L24.4886 13.6329Z" fill="white"/>
<path d="M32.3372 11.9868C32.3569 11.8498 32.345 11.7101 32.3025 11.5786C32.26 11.4471 32.1882 11.3276 32.0926 11.2293C31.997 11.131 31.8803 11.0567 31.7517 11.0123C31.6231 10.9679 31.4861 10.9546 31.3516 10.9734H30.111V15.174C30.1189 15.2388 30.1124 15.3047 30.0919 15.3666C30.0714 15.4286 30.0375 15.485 29.9926 15.5317C29.9478 15.5784 29.8932 15.6143 29.833 15.6365C29.7727 15.6588 29.7083 15.6669 29.6445 15.6603C29.5812 15.6647 29.5178 15.6551 29.4586 15.632C29.3994 15.609 29.3458 15.5731 29.3015 15.5268C29.2573 15.4806 29.2234 15.4251 29.2023 15.3641C29.1812 15.3032 29.1734 15.2383 29.1793 15.174V10.5514C29.1726 10.4869 29.1799 10.4217 29.2008 10.3605C29.2216 10.2993 29.2554 10.2434 29.2999 10.1971C29.3443 10.1507 29.3982 10.1149 29.4578 10.0922C29.5173 10.0695 29.5811 10.0605 29.6445 10.0658H31.3516C31.6082 10.0327 31.8688 10.0593 32.1139 10.1437C32.3589 10.228 32.582 10.3679 32.7664 10.5528C32.9508 10.7377 33.0917 10.9628 33.1785 11.2111C33.2653 11.4595 33.2957 11.7247 33.2675 11.9868V15.174C33.2747 15.2385 33.2678 15.3039 33.2471 15.3653C33.2265 15.4268 33.1928 15.4828 33.1484 15.5293C33.1039 15.5759 33.0499 15.6118 32.9902 15.6344C32.9304 15.6571 32.8665 15.6659 32.8031 15.6603C32.7393 15.6669 32.6749 15.6588 32.6147 15.6366C32.5544 15.6143 32.4999 15.5785 32.4551 15.5317C32.4103 15.485 32.3764 15.4285 32.356 15.3666C32.3356 15.3046 32.3292 15.2388 32.3372 15.174V11.9868Z" fill="white"/>
<path d="M38.7057 16.1338C38.7323 16.4047 38.7008 16.6783 38.6133 16.9356C38.5259 17.1929 38.3845 17.4276 38.1991 17.6236C38.0136 17.8196 37.7886 17.9721 37.5395 18.0705C37.2904 18.1688 37.0234 18.2108 36.7568 18.1934H35.5989C35.5382 18.2004 35.4767 18.1935 35.4189 18.1734C35.3612 18.1532 35.3085 18.1202 35.2648 18.0767C35.2211 18.0332 35.1874 17.9804 35.1662 17.922C35.145 17.8636 35.1367 17.8012 35.1421 17.7392C35.1385 17.6776 35.1479 17.616 35.1697 17.5585C35.1915 17.501 35.2253 17.449 35.2686 17.406C35.312 17.363 35.3639 17.3301 35.4209 17.3094C35.4779 17.2888 35.5386 17.2809 35.5989 17.2864H36.7568C37.4573 17.2864 37.7747 16.8108 37.7747 16.1338V15.5532H36.5193C36.2632 15.5861 36.003 15.5594 35.7585 15.4748C35.514 15.3903 35.2915 15.2502 35.1079 15.0652C34.9242 14.8802 34.7842 14.6551 34.6984 14.4068C34.6126 14.1586 34.5832 13.8937 34.6125 13.6321V12.1325C34.5841 11.8614 34.6141 11.5872 34.7002 11.3291C34.7864 11.071 34.9267 10.8352 35.1114 10.6381C35.2962 10.4409 35.5208 10.2872 35.7698 10.1876C36.0188 10.088 36.286 10.045 36.553 10.0615H38.23C38.294 10.0559 38.3583 10.0647 38.4186 10.0872C38.4789 10.1096 38.5336 10.1453 38.579 10.1917C38.6243 10.238 38.6591 10.2939 38.681 10.3554C38.7029 10.4169 38.7113 10.4826 38.7057 10.5478V16.1338ZM36.553 10.9734C35.8581 10.9734 35.547 11.4605 35.547 12.1339V13.6336C35.5259 13.7696 35.5363 13.9088 35.5774 14.04C35.6184 14.1712 35.689 14.2908 35.7835 14.3893C35.8779 14.4877 35.9937 14.5623 36.1214 14.607C36.2492 14.6518 36.3855 14.6655 36.5193 14.647H37.7747V10.9749L36.553 10.9734Z" fill="white"/>
</g>
<defs>
<clipPath id="clip0_12_137">
<rect width="139" height="24" fill="white"/>
</clipPath>
</defs>
</svg>
