<svg width="119" height="35" viewBox="0 0 119 35" fill="none" xmlns="http://www.w3.org/2000/svg">
<path d="M117.707 30.2509C117.707 32.0731 116.201 33.5492 114.337 33.5492H4.03259C2.16971 33.5492 0.657593 32.0731 0.657593 30.2509V3.94783C0.657593 2.12643 2.16971 0.645203 4.03259 0.645203H114.336C116.201 0.645203 117.707 2.12643 117.707 3.94783L117.707 30.2509Z" fill="black"/>
<path d="M113.981 0.684976C116.011 0.684976 117.662 2.29531 117.662 4.27431V29.92C117.662 31.899 116.011 33.5094 113.981 33.5094H4.38389C2.35415 33.5094 0.702518 31.899 0.702518 29.92V4.27431C0.702518 2.29531 2.35415 0.684976 4.38389 0.684976H113.981ZM113.981 2.09183e-05H4.38389C1.97385 2.09183e-05 0 1.92452 0 4.27431V29.92C0 32.2698 1.97385 34.1943 4.38389 34.1943H113.981C116.391 34.1943 118.365 32.2698 118.365 29.92V4.27431C118.365 1.92452 116.391 2.09183e-05 113.981 2.09183e-05Z" fill="#A6A6A6"/>
<path d="M26.4155 16.9125C26.3901 14.1573 28.7293 12.8169 28.8363 12.7545C27.5115 10.8712 25.4581 10.6139 24.7365 10.5934C23.0119 10.4164 21.339 11.5996 20.4605 11.5996C19.5644 11.5996 18.2115 10.6105 16.7534 10.6395C14.8771 10.6678 13.1218 11.7269 12.1591 13.3717C10.1724 16.7253 11.6541 21.6535 13.5576 24.3643C14.5098 25.6919 15.6224 27.1742 17.0787 27.1221C18.5035 27.0648 19.0357 26.2364 20.7551 26.2364C22.4586 26.2364 22.9584 27.1221 24.4437 27.0887C25.9728 27.0648 26.9355 25.7551 27.8543 24.4156C28.9547 22.8939 29.3966 21.3954 29.4141 21.3184C29.3782 21.3065 26.4445 20.2148 26.4155 16.9125Z" fill="white"/>
<path d="M23.6098 8.81015C24.3761 7.87579 24.9005 6.60462 24.7549 5.31464C23.6458 5.36251 22.2587 6.06264 21.46 6.97648C20.7533 7.78176 20.122 9.10166 20.2851 10.3429C21.531 10.4335 22.8102 9.72998 23.6098 8.81015Z" fill="white"/>
<path d="M47.0347 26.9314H45.0436L43.9529 23.5898H40.1617L39.1227 26.9314H37.1841L40.9403 15.555H43.2602L47.0347 26.9314ZM43.6241 22.1878L42.6377 19.2172C42.5334 18.9137 42.3378 18.1991 42.0494 17.0741H42.0143C41.8994 17.5579 41.7144 18.2726 41.4602 19.2172L40.4913 22.1878H43.6241Z" fill="white"/>
<path d="M56.6942 22.729C56.6942 24.1241 56.3075 25.2269 55.5342 26.0364C54.8415 26.757 53.9814 27.1169 52.9547 27.1169C51.8465 27.1169 51.0503 26.7288 50.5655 25.9526H50.5304V30.2739H48.6611V21.4287C48.6611 20.5516 48.6375 19.6515 48.5919 18.7282H50.2358L50.3402 20.0285H50.3752C50.9986 19.0488 51.9447 18.5598 53.2142 18.5598C54.2067 18.5598 55.0353 18.9419 55.6981 19.707C56.3627 20.473 56.6942 21.48 56.6942 22.729ZM54.7898 22.7956C54.7898 21.9972 54.6057 21.339 54.2357 20.8209C53.8315 20.2806 53.2888 20.0105 52.6084 20.0105C52.1472 20.0105 51.7281 20.161 51.3537 20.4576C50.9784 20.7568 50.7329 21.1475 50.6181 21.6313C50.5602 21.857 50.5313 22.0417 50.5313 22.187V23.5547C50.5313 24.1514 50.7189 24.655 51.0942 25.0661C51.4694 25.4773 51.9569 25.6825 52.5566 25.6825C53.2607 25.6825 53.8087 25.4175 54.2006 24.8892C54.5934 24.36 54.7898 23.6625 54.7898 22.7956Z" fill="white"/>
<path d="M66.3711 22.729C66.3711 24.1241 65.9845 25.2269 65.2103 26.0364C64.5185 26.757 63.6584 27.1169 62.6317 27.1169C61.5234 27.1169 60.7273 26.7288 60.2433 25.9526H60.2083V30.2739H58.339V21.4287C58.339 20.5516 58.3153 19.6515 58.2697 18.7282H59.9137L60.018 20.0285H60.0531C60.6756 19.0488 61.6216 18.5598 62.8921 18.5598C63.8837 18.5598 64.7123 18.9419 65.3769 19.707C66.0388 20.473 66.3711 21.48 66.3711 22.729ZM64.4668 22.7956C64.4668 21.9972 64.2818 21.339 63.9118 20.8209C63.5076 20.2806 62.9666 20.0105 62.2854 20.0105C61.8233 20.0105 61.4051 20.161 61.0298 20.4576C60.6546 20.7568 60.4099 21.1475 60.2951 21.6313C60.2381 21.857 60.2083 22.0417 60.2083 22.187V23.5547C60.2083 24.1514 60.3959 24.655 60.7694 25.0661C61.1447 25.4765 61.6322 25.6825 62.2336 25.6825C62.9377 25.6825 63.4857 25.4175 63.8776 24.8892C64.2704 24.36 64.4668 23.6625 64.4668 22.7956Z" fill="white"/>
<path d="M77.1906 23.7411C77.1906 24.7088 76.846 25.4961 76.1542 26.104C75.3941 26.7682 74.3358 27.0999 72.9759 27.0999C71.7204 27.0999 70.7138 26.8639 69.9519 26.3912L70.385 24.8721C71.2057 25.356 72.1061 25.5987 73.0873 25.5987C73.7913 25.5987 74.3393 25.4431 74.733 25.1337C75.1249 24.8242 75.3204 24.4088 75.3204 23.8907C75.3204 23.4291 75.1591 23.0401 74.8356 22.7247C74.5138 22.4093 73.9763 22.116 73.2258 21.8451C71.1829 21.1022 70.1623 20.0139 70.1623 18.5829C70.1623 17.6477 70.5201 16.8809 71.2364 16.2842C71.9501 15.6867 72.9023 15.3883 74.0929 15.3883C75.1547 15.3883 76.0367 15.5687 76.7408 15.9286L76.2735 17.4143C75.6159 17.0655 74.8724 16.8911 74.0403 16.8911C73.3827 16.8911 72.8689 17.0493 72.5007 17.3639C72.1894 17.6451 72.0334 17.9879 72.0334 18.394C72.0334 18.8436 72.2114 19.2155 72.5691 19.5079C72.8803 19.778 73.4459 20.0704 74.2665 20.3858C75.2704 20.7799 76.0078 21.2407 76.4821 21.769C76.9547 22.2956 77.1906 22.9547 77.1906 23.7411Z" fill="white"/>
<path d="M83.371 20.096H81.3106V24.0788C81.3106 25.0918 81.6736 25.5978 82.4013 25.5978C82.7354 25.5978 83.0124 25.5696 83.2316 25.5132L83.2833 26.8972C82.9151 27.0314 82.4302 27.099 81.8296 27.099C81.0914 27.099 80.5145 26.8793 80.098 26.4407C79.6833 26.0013 79.4746 25.2644 79.4746 24.2292V20.0943H78.2471V18.7265H79.4746V17.2245L81.3106 16.6842V18.7265H83.371V20.096Z" fill="white"/>
<path d="M92.6675 22.7623C92.6675 24.0232 92.2975 25.0584 91.5592 25.868C90.785 26.7015 89.7574 27.1169 88.4765 27.1169C87.242 27.1169 86.2591 26.7177 85.5261 25.9193C84.7931 25.1208 84.4266 24.113 84.4266 22.8982C84.4266 21.627 84.8036 20.5858 85.5603 19.7763C86.3152 18.9659 87.334 18.5607 88.615 18.5607C89.8495 18.5607 90.8429 18.9599 91.5925 19.7592C92.3097 20.5345 92.6675 21.5356 92.6675 22.7623ZM90.728 22.8213C90.728 22.0647 90.5623 21.4159 90.2265 20.8748C89.8346 20.2199 89.2743 19.8934 88.5484 19.8934C87.797 19.8934 87.2262 20.2208 86.8343 20.8748C86.4985 21.4167 86.3328 22.0758 86.3328 22.8555C86.3328 23.612 86.4985 24.2609 86.8343 24.8011C87.2385 25.456 87.8031 25.7825 88.5317 25.7825C89.2454 25.7825 89.8057 25.4491 90.2099 24.784C90.5544 24.2327 90.728 23.577 90.728 22.8213Z" fill="white"/>
<path d="M98.7435 20.3311C98.5585 20.2977 98.3612 20.2806 98.1543 20.2806C97.4967 20.2806 96.9882 20.5226 96.6305 21.0073C96.3192 21.4347 96.1632 21.975 96.1632 22.6272V26.9314H94.2947L94.3123 21.3116C94.3123 20.3661 94.2886 19.5053 94.2421 18.7291H95.8703L95.9387 20.2986H95.9904C96.1877 19.7592 96.499 19.3249 96.9251 18.9992C97.3415 18.706 97.7913 18.5598 98.2762 18.5598C98.4489 18.5598 98.605 18.5718 98.7435 18.5932V20.3311Z" fill="white"/>
<path d="M107.104 22.4417C107.104 22.7683 107.082 23.0435 107.035 23.2684H101.427C101.449 24.0788 101.72 24.6986 102.241 25.126C102.714 25.5081 103.325 25.6996 104.075 25.6996C104.906 25.6996 105.663 25.5705 106.344 25.3115L106.637 26.5767C105.841 26.9152 104.901 27.0836 103.817 27.0836C102.512 27.0836 101.488 26.7092 100.743 25.9612C99.9991 25.2132 99.6265 24.2087 99.6265 22.9487C99.6265 21.7117 99.9728 20.6816 100.666 19.8601C101.392 18.983 102.373 18.5444 103.608 18.5444C104.82 18.5444 105.738 18.983 106.362 19.8601C106.855 20.5568 107.104 21.4185 107.104 22.4417ZM105.321 21.969C105.333 21.4287 105.212 20.962 104.958 20.5679C104.635 20.061 104.137 19.8079 103.469 19.8079C102.857 19.8079 102.36 20.055 101.981 20.5508C101.669 20.9449 101.484 21.4176 101.427 21.9681H105.321V21.969Z" fill="white"/>
<path d="M43.0059 8.5563C43.0059 9.56247 42.6964 10.3199 42.0783 10.8285C41.5058 11.2978 40.6921 11.5329 39.6382 11.5329C39.1157 11.5329 38.6685 11.5107 38.2941 11.4662V5.96865C38.7825 5.89171 39.3086 5.85239 39.8767 5.85239C40.8806 5.85239 41.6373 6.06525 42.1476 6.49097C42.7192 6.97225 43.0059 7.66041 43.0059 8.5563ZM42.0371 8.58109C42.0371 7.92884 41.86 7.42874 41.5058 7.07996C41.1516 6.73203 40.6343 6.55764 39.953 6.55764C39.6637 6.55764 39.4173 6.57645 39.213 6.61577V10.7952C39.3261 10.8123 39.533 10.82 39.8338 10.82C40.5369 10.82 41.0797 10.6293 41.4619 10.2481C41.8442 9.8668 42.0371 9.31114 42.0371 8.58109Z" fill="white"/>
<path d="M48.143 9.43512C48.143 10.0549 47.9615 10.5627 47.5985 10.961C47.218 11.3705 46.7138 11.5748 46.0843 11.5748C45.4776 11.5748 44.9945 11.3791 44.6341 10.9858C44.2747 10.5934 44.0949 10.0985 44.0949 9.5018C44.0949 8.87775 44.2799 8.36569 44.6517 7.96818C45.0234 7.57067 45.5232 7.37149 46.1527 7.37149C46.7594 7.37149 47.2469 7.56725 47.616 7.95963C47.9668 8.3409 48.143 8.8333 48.143 9.43512ZM47.1899 9.46418C47.1899 9.09232 47.1075 8.77346 46.9436 8.5076C46.7507 8.18617 46.4762 8.02546 46.1194 8.02546C45.7503 8.02546 45.4697 8.18617 45.2768 8.5076C45.112 8.77346 45.0304 9.09745 45.0304 9.48042C45.0304 9.85229 45.1128 10.1711 45.2768 10.437C45.4758 10.7584 45.7529 10.9192 46.1106 10.9192C46.4613 10.9192 46.7366 10.7559 46.9348 10.4285C47.1049 10.1575 47.1899 9.83605 47.1899 9.46418Z" fill="white"/>
<path d="M55.0309 7.45355L53.7377 11.4834H52.896L52.3603 9.73346C52.2244 9.29663 52.1139 8.86236 52.028 8.43151H52.0113C51.9315 8.87433 51.821 9.30774 51.679 9.73346L51.11 11.4834H50.2586L49.0425 7.45355H49.9868L50.4541 9.36929C50.5673 9.82236 50.6602 10.2541 50.7347 10.6627H50.7514C50.8198 10.3259 50.9329 9.89674 51.0924 9.37784L51.679 7.45441H52.4278L52.9898 9.3368C53.1257 9.79586 53.2362 10.2378 53.3212 10.6635H53.3466C53.4089 10.2489 53.5027 9.80698 53.6272 9.3368L54.1287 7.45441H55.0309V7.45355Z" fill="white"/>
<path d="M59.7945 11.4834H58.8756V9.17524C58.8756 8.464 58.5985 8.10838 58.0427 8.10838C57.77 8.10838 57.5499 8.20583 57.3789 8.4016C57.2097 8.59736 57.1238 8.82817 57.1238 9.09232V11.4825H56.2049V8.60505C56.2049 8.25114 56.1936 7.86731 56.1716 7.45185H56.9791L57.0221 8.08188H57.0475C57.1545 7.88612 57.3141 7.72455 57.5236 7.59546C57.7726 7.44501 58.0514 7.36893 58.3566 7.36893C58.7423 7.36893 59.0632 7.49032 59.3184 7.73395C59.6358 8.0323 59.7945 8.47768 59.7945 9.06924V11.4834Z" fill="white"/>
<path d="M62.3284 11.4833H61.4104V5.60446H62.3284V11.4833Z" fill="white"/>
<path d="M67.7381 9.43512C67.7381 10.0549 67.5566 10.5627 67.1936 10.961C66.8131 11.3705 66.3081 11.5748 65.6794 11.5748C65.0718 11.5748 64.5887 11.3791 64.2292 10.9858C63.8697 10.5934 63.69 10.0985 63.69 9.5018C63.69 8.87775 63.875 8.36569 64.2468 7.96818C64.6185 7.57067 65.1183 7.37149 65.7469 7.37149C66.3545 7.37149 66.8411 7.56725 67.2111 7.95963C67.5619 8.3409 67.7381 8.8333 67.7381 9.43512ZM66.7841 9.46418C66.7841 9.09232 66.7017 8.77346 66.5378 8.5076C66.3458 8.18617 66.0705 8.02546 65.7145 8.02546C65.3445 8.02546 65.0639 8.18617 64.8719 8.5076C64.7071 8.77346 64.6255 9.09745 64.6255 9.48042C64.6255 9.85229 64.7079 10.1711 64.8719 10.437C65.0709 10.7584 65.348 10.9192 65.7057 10.9192C66.0564 10.9192 66.3309 10.7559 66.529 10.4285C66.7 10.1575 66.7841 9.83605 66.7841 9.46418Z" fill="white"/>
<path d="M72.1851 11.4834H71.36L71.2916 11.0192H71.2662C70.9839 11.3893 70.5814 11.5748 70.0589 11.5748C69.6687 11.5748 69.3531 11.4526 69.1155 11.2098C68.8998 10.9892 68.7919 10.7148 68.7919 10.3891C68.7919 9.89674 69.0024 9.52146 69.4258 9.26158C69.8484 9.0017 70.4429 8.87433 71.2083 8.88031V8.80509C71.2083 8.27422 70.9225 8.00921 70.35 8.00921C69.9423 8.00921 69.5828 8.10923 69.2724 8.30756L69.0857 7.71942C69.4697 7.48775 69.944 7.37149 70.5034 7.37149C71.5836 7.37149 72.1254 7.92715 72.1254 9.03846V10.5225C72.1254 10.9251 72.1456 11.2457 72.1851 11.4834ZM71.2311 10.0985V9.47701C70.2176 9.45991 69.7108 9.7309 69.7108 10.2891C69.7108 10.4994 69.7687 10.6567 69.887 10.7619C70.0054 10.867 70.1562 10.9192 70.3359 10.9192C70.5376 10.9192 70.7261 10.8567 70.8979 10.7328C71.0707 10.608 71.1768 10.4498 71.2162 10.2558C71.2259 10.2122 71.2311 10.1592 71.2311 10.0985Z" fill="white"/>
<path d="M77.4063 11.4833H76.5909L76.5479 10.8362H76.5225C76.2621 11.3286 75.8185 11.5748 75.1951 11.5748C74.6971 11.5748 74.2824 11.3842 73.9536 11.0029C73.6248 10.6216 73.4608 10.1267 73.4608 9.51886C73.4608 8.8666 73.6388 8.3383 73.9965 7.9348C74.3429 7.55867 74.7672 7.3706 75.2722 7.3706C75.8272 7.3706 76.2156 7.55268 76.4366 7.91771H76.4541V5.60446H77.3739V10.3977C77.3739 10.79 77.3844 11.1516 77.4063 11.4833ZM76.4541 9.78386V9.11194C76.4541 8.99568 76.4454 8.90165 76.4287 8.82984C76.377 8.61442 76.2656 8.43319 76.0964 8.28701C75.9254 8.14083 75.7194 8.06731 75.4818 8.06731C75.139 8.06731 74.8707 8.19981 74.6734 8.46567C74.4779 8.73153 74.3788 9.07091 74.3788 9.48552C74.3788 9.88388 74.4726 10.207 74.6611 10.4558C74.8601 10.7208 75.1284 10.8533 75.4642 10.8533C75.7659 10.8533 76.007 10.743 76.1902 10.5216C76.3673 10.3173 76.4541 10.0711 76.4541 9.78386Z" fill="white"/>
<path d="M85.2649 9.43512C85.2649 10.0549 85.0834 10.5627 84.7204 10.961C84.3399 11.3705 83.8366 11.5748 83.2062 11.5748C82.6004 11.5748 82.1173 11.3791 81.756 10.9858C81.3965 10.5934 81.2168 10.0985 81.2168 9.5018C81.2168 8.87775 81.4018 8.36569 81.7736 7.96818C82.1453 7.57067 82.6451 7.37149 83.2755 7.37149C83.8813 7.37149 84.3697 7.56725 84.7379 7.95963C85.0886 8.3409 85.2649 8.8333 85.2649 9.43512ZM84.3127 9.46418C84.3127 9.09232 84.2303 8.77346 84.0663 8.5076C83.8726 8.18617 83.599 8.02546 83.2413 8.02546C82.873 8.02546 82.5925 8.18617 82.3987 8.5076C82.2339 8.77346 82.1523 9.09745 82.1523 9.48042C82.1523 9.85229 82.2347 10.1711 82.3987 10.437C82.5977 10.7584 82.8748 10.9192 83.2325 10.9192C83.5832 10.9192 83.8594 10.7559 84.0576 10.4285C84.2268 10.1575 84.3127 9.83605 84.3127 9.46418Z" fill="white"/>
<path d="M90.2055 11.4834H89.2875V9.17524C89.2875 8.464 89.0105 8.10838 88.4537 8.10838C88.181 8.10838 87.961 8.20583 87.7909 8.4016C87.6208 8.59736 87.5357 8.82817 87.5357 9.09232V11.4825H86.616V8.60505C86.616 8.25114 86.6055 7.86731 86.5836 7.45185H87.3902L87.4332 8.08188H87.4586C87.5664 7.88612 87.726 7.72455 87.9347 7.59546C88.1845 7.44501 88.4625 7.36893 88.7685 7.36893C89.1534 7.36893 89.4743 7.49032 89.7294 7.73395C90.0477 8.0323 90.2055 8.47768 90.2055 9.06924V11.4834Z" fill="white"/>
<path d="M96.3894 8.12459H95.3776V10.0822C95.3776 10.5797 95.5574 10.8285 95.9133 10.8285C96.0782 10.8285 96.2149 10.8148 96.3228 10.7866L96.3465 11.4662C96.165 11.5329 95.9265 11.5662 95.6328 11.5662C95.2698 11.5662 94.9874 11.4585 94.7832 11.2431C94.578 11.0277 94.4763 10.6652 94.4763 10.1566V8.12459H93.8722V7.45352H94.4763V6.71493L95.3767 6.44992V7.45267H96.3885V8.12459H96.3894Z" fill="white"/>
<path d="M101.254 11.4833H100.334V9.1923C100.334 8.46995 100.057 8.10834 99.502 8.10834C99.0759 8.10834 98.7848 8.31778 98.6252 8.73666C98.598 8.82471 98.5822 8.93242 98.5822 9.05894V11.4825H97.6642V5.60446H98.5822V8.03311H98.5998C98.8891 7.59115 99.3038 7.3706 99.8413 7.3706C100.222 7.3706 100.537 7.49199 100.786 7.73562C101.098 8.0391 101.254 8.49046 101.254 9.08715V11.4833Z" fill="white"/>
<path d="M106.272 9.2778C106.272 9.43851 106.259 9.57358 106.237 9.68385H103.482C103.494 10.0822 103.625 10.3857 103.881 10.596C104.114 10.7841 104.415 10.8781 104.783 10.8781C105.19 10.8781 105.562 10.8148 105.897 10.6875L106.041 11.3098C105.649 11.4756 105.188 11.5586 104.654 11.5586C104.014 11.5586 103.51 11.3748 103.145 11.0072C102.778 10.6396 102.597 10.1463 102.597 9.52741C102.597 8.91961 102.766 8.41353 103.107 8.01004C103.463 7.57919 103.945 7.36377 104.552 7.36377C105.147 7.36377 105.598 7.57919 105.903 8.01004C106.15 8.35198 106.272 8.77514 106.272 9.2778ZM105.395 9.04613C105.402 8.78027 105.341 8.55117 105.217 8.35797C105.057 8.10921 104.814 7.9844 104.486 7.9844C104.186 7.9844 103.941 8.10579 103.754 8.34942C103.602 8.54347 103.511 8.77514 103.482 9.04613H105.395Z" fill="white"/>
</svg>
