<svg width="147" height="43" viewBox="0 0 147 43" fill="none" xmlns="http://www.w3.org/2000/svg">
<path d="M141.378 42.4716H5.4376C2.44828 42.4716 0 40.0813 0 37.1627V5.30896C0 2.39037 2.44828 9.41195e-06 5.4376 9.41195e-06H141.378C144.367 9.41195e-06 146.815 2.39037 146.815 5.30896V37.1627C146.815 40.0813 144.367 42.4716 141.378 42.4716Z" fill="black"/>
<path d="M141.378 0.850766C143.895 0.850766 145.944 2.85092 145.944 5.30896V37.1627C145.944 39.6207 143.895 41.6209 141.378 41.6209H5.4376C2.91999 41.6209 0.871375 39.6207 0.871375 37.1627V5.30896C0.871375 2.85092 2.91999 0.850766 5.4376 0.850766H141.378ZM141.378 9.41195e-06H5.4376C2.44828 9.41195e-06 0 2.39037 0 5.30896V37.1627C0 40.0813 2.44828 42.4716 5.4376 42.4716H141.378C144.367 42.4716 146.815 40.0813 146.815 37.1627V5.30896C146.815 2.39037 144.367 9.41195e-06 141.378 9.41195e-06Z" fill="#A6A6A6"/>
<g clip-path="url(#clip0_12_543)">
<path d="M49.4922 18.1713C49.2188 16.2194 48.5113 14.3562 47.4235 12.7226C46.3357 11.0891 44.896 9.72798 43.2134 8.74238C41.5307 7.75678 39.6492 7.17248 37.7111 7.03369C35.7731 6.8949 33.8294 7.20525 32.027 7.94126L49.4922 18.1713Z" fill="#D40F7D"/>
<path d="M32.0261 32.0594C33.8287 32.7957 35.7726 33.1062 37.7109 32.9675C39.6492 32.8287 41.531 32.2444 43.2138 31.2586C44.8967 30.2728 46.3365 28.9114 47.4242 27.2775C48.512 25.6436 49.2192 23.78 49.4923 21.8277L32.0261 32.0594Z" fill="#D40F7D"/>
<path d="M28.9103 9.77039C27.3807 10.9857 26.1436 12.5383 25.2929 14.3106C24.4421 16.0829 24 18.0284 24 19.9999C24 21.9713 24.4421 23.9168 25.2929 25.6891C26.1436 27.4615 27.3807 29.0141 28.9103 30.2293V9.77039Z" fill="#D40F7D"/>
<path d="M61.043 15.8443V14.7021H54.235V15.8443H56.9534V22.7841H58.3267V15.8443H61.043ZM68.4229 19.0611V18.5362C68.4229 16.2391 67.2669 14.5119 64.8317 14.5119C62.6313 14.5119 61.0226 16.2231 61.0226 18.631C61.0226 21.214 62.4585 22.9731 65.2536 22.9731C66.1615 22.9714 67.0612 22.7996 67.9076 22.4665V21.0736C67.5325 21.3752 66.2375 21.8342 65.3163 21.8342C64.5795 21.8459 63.8682 21.5608 63.3382 21.0412C62.8083 20.5216 62.503 19.8099 62.4892 19.0623L68.4229 19.0611ZM66.9706 18.0148H62.4892C62.5686 16.9035 63.3806 15.6544 64.8168 15.6544C66.127 15.6557 66.9706 16.7324 66.9706 18.0161V18.0148ZM76.1883 22.7841V14.7045H70.5059V17.0334C70.5059 20.6145 70.3343 21.6916 69.3362 21.6916C69.0822 21.6914 68.8295 21.6541 68.586 21.5808V22.8008C68.8566 22.8711 69.1345 22.9085 69.4138 22.9122C71.7398 22.9122 71.8803 20.2024 71.8803 18.1423V15.8443H74.8154V22.7841H76.1883ZM84.6936 19.0611V18.5362C84.6936 16.2391 83.5375 14.5119 81.1038 14.5119C78.9016 14.5119 77.2938 16.2231 77.2938 18.631C77.2938 21.214 78.7303 22.9731 81.5252 22.9731C82.4332 22.9714 83.3332 22.7997 84.1797 22.4665V21.0736C83.8046 21.3752 82.5066 21.8342 81.5875 21.8342C80.8509 21.8457 80.1399 21.5604 79.6103 21.0408C79.0806 20.5212 78.7756 19.8097 78.762 19.0623L84.6936 19.0611ZM83.2418 18.0148H78.7614C78.839 16.9035 79.6512 15.6544 81.0877 15.6544C82.3989 15.6557 83.2422 16.7324 83.2422 18.0161L83.2418 18.0148ZM87.2 22.7841V18.6014H87.2322L91.1663 22.7854H92.9308L88.7624 18.4597L92.4939 14.7045H90.776L87.2325 18.4291H87.2003V14.7045H85.8271V22.7854L87.2 22.7841ZM99.4312 22.7841V17.7938C99.4312 15.6078 98.5414 14.514 96.3246 14.514C95.4001 14.544 94.5066 14.8588 93.7628 15.4167V16.6059C94.4088 15.9991 95.2554 15.6601 96.1357 15.6557C97.4633 15.6557 98.0717 16.2576 98.0717 17.4462V18.0636C97.515 17.8612 96.929 17.7542 96.3377 17.7469C95.2598 17.7469 92.8392 18.1744 92.8392 20.424C92.8392 21.9775 93.8702 22.9752 95.6973 22.9752C96.8679 22.9752 97.6479 22.2306 98.1797 21.6916H98.2101V22.7854L99.4312 22.7841ZM98.0723 20.7404C97.4812 21.3733 96.6806 21.7623 95.8242 21.833C95.1059 21.833 94.3095 21.3103 94.3095 20.4228C94.3095 18.9175 96.09 18.7598 96.7916 18.7598C97.2313 18.7796 97.6644 18.8756 98.0723 19.0435V20.7404ZM108.745 18.632C108.745 16.224 107.106 14.5128 104.857 14.5128C104.343 14.5239 103.838 14.6488 103.377 14.8788C102.916 15.1088 102.51 15.4383 102.188 15.8443H102.157V14.7021H100.862V25.4832H102.22V21.7407H102.25C102.581 22.1179 102.985 22.4221 103.436 22.6345C103.888 22.847 104.377 22.963 104.875 22.9755C107.231 22.9755 108.746 21.0266 108.746 18.6332L108.745 18.632ZM107.278 18.7125C107.278 20.4697 106.31 21.833 104.669 21.833C104.161 21.8277 103.665 21.6817 103.233 21.4108C102.801 21.1399 102.45 20.7544 102.218 20.2959V17.0964C102.64 16.4633 103.155 15.6557 104.669 15.6557C106.342 15.6557 107.278 17.0483 107.278 18.7153L107.278 18.7125ZM115.481 15.8443V14.7021H108.674V15.8443H111.39V22.7841H112.764V15.8443H115.481ZM122 22.7841V17.7938C122 15.6078 121.11 14.514 118.893 14.514C117.969 14.544 117.076 14.8589 116.332 15.4167V16.6059C116.978 15.9992 117.825 15.6601 118.705 15.6557C120.031 15.6557 120.641 16.2576 120.641 17.4462V18.0636C120.084 17.8614 119.498 17.7543 118.907 17.7469C117.83 17.7469 115.41 18.1744 115.41 20.424C115.41 21.9775 116.44 22.9752 118.267 22.9752C119.438 22.9752 120.218 22.2306 120.749 21.6916H120.78V22.7854L122 22.7841ZM120.642 20.7404C120.051 21.3732 119.25 21.7623 118.394 21.833C117.676 21.833 116.879 21.3103 116.879 20.4228C116.879 18.9175 118.659 18.7598 119.361 18.7598C119.801 18.7797 120.234 18.8756 120.642 19.0435V20.7404Z" fill="white"/>
<path d="M54.3752 30.0811C54.3752 29.1886 54.9012 28.6641 55.6758 28.6641C56.5461 28.6641 56.9477 29.1837 56.9477 30.0567C56.9477 30.969 56.3931 31.4398 55.6374 31.4398C54.8294 31.4398 54.3752 30.9255 54.3752 30.0811ZM56.3021 30.0567C56.3021 29.6057 56.178 29.1785 55.6615 29.1785C55.1546 29.1785 55.0159 29.6057 55.0159 30.062C55.0159 30.5519 55.1738 30.9205 55.6712 30.9205C56.1774 30.9205 56.3021 30.5389 56.3021 30.0567Z" fill="white"/>
<path d="M57.5345 28.7324H58.1707V29.8048H59.2658V28.7324H59.9019V31.3814H59.2652V30.3009H58.17V31.3814H57.5339L57.5345 28.7324Z" fill="white"/>
<path d="M60.2682 30.935C60.4783 30.8757 60.6613 30.7436 60.7854 30.5615C60.9049 30.3383 61.0004 29.6443 61.0287 28.7324H62.8361V31.3814H62.2009V29.2223H61.5693C61.4933 30.1154 61.3974 30.6584 61.2256 30.9545C61.1348 31.0877 61.0186 31.2009 60.8838 31.2876C60.749 31.3743 60.5984 31.4325 60.441 31.4589L60.2682 30.935Z" fill="white"/>
<path d="M63.3992 30.6442C63.3992 29.9792 63.9918 29.8434 64.4749 29.8385L64.992 29.8338V29.6011C64.992 29.2951 64.8202 29.2223 64.4423 29.2223C64.1965 29.2328 63.9526 29.272 63.7156 29.339L63.5863 28.8583C63.8961 28.7369 64.2249 28.673 64.557 28.6694C65.2792 28.6694 65.6135 28.8876 65.6135 29.4554V30.7461C65.6135 30.872 65.7188 30.9004 65.853 30.9109L65.8241 31.4049H65.6856C65.4082 31.4049 65.1076 31.3373 65.0495 31.1045C64.8215 31.3005 64.5353 31.4132 64.2367 31.4246C63.7052 31.4253 63.3992 31.1536 63.3992 30.6442ZM64.9911 30.7507V30.2259L64.5083 30.2451C64.2072 30.25 64.0158 30.3763 64.0158 30.5945C64.0158 30.8273 64.1786 30.9146 64.3793 30.9146C64.5903 30.8918 64.7966 30.8365 64.9911 30.7507Z" fill="white"/>
<path d="M66.4723 28.7324H67.1081V30.1345L67.0941 30.5226L67.342 30.1345L68.2985 28.7324H68.9343V31.3814H68.2985V29.9888L68.3079 29.6011L68.0645 29.9888L67.1081 31.3814H66.4723V28.7324ZM66.7975 27.8541L67.0795 27.5191C67.1514 27.6184 67.2453 27.6992 67.3537 27.7548C67.462 27.8104 67.5817 27.8394 67.7031 27.8394C67.8246 27.8394 67.9443 27.8104 68.0526 27.7548C68.161 27.6992 68.2549 27.6184 68.3268 27.5191L68.6088 27.8541C68.5185 28.0174 68.387 28.1534 68.2278 28.2481C68.0686 28.3428 67.8874 28.3927 67.7028 28.3927C67.5183 28.3927 67.3371 28.3428 67.1779 28.2481C67.0186 28.1534 66.8871 28.0174 66.7969 27.8541H66.7975Z" fill="white"/>
<path d="M69.6793 28.7324H70.3151V29.8048H71.4103V28.7324H72.0464V31.3814H71.4103V30.3009H70.3151V31.3814H69.6793V28.7324Z" fill="white"/>
<path d="M72.585 29.727H74.0099V30.2559H72.585V29.727Z" fill="white"/>
<path d="M74.5541 28.7324H75.1908V29.9938L76.1034 28.7324H76.7916L75.8023 29.9549L76.9063 31.3814H76.1561L75.1908 30.0327V31.3814H74.5547L74.5541 28.7324Z" fill="white"/>
<path d="M77.3203 28.7324H77.9592V30.1345L77.9446 30.5226L78.1931 30.1345L79.1496 28.7324H79.7854V31.3814H79.1496V29.9888L79.159 29.6011L78.9156 29.9888L77.9595 31.3814H77.3203V28.7324Z" fill="white"/>
<path d="M80.5286 28.7324H81.1647V29.8048H82.2599V28.7324H82.896V31.3814H82.2599V30.3009H81.1647V31.3814H80.5286V28.7324Z" fill="white"/>
<path d="M83.4824 30.0811C83.4824 29.1886 84.0084 28.6641 84.7829 28.6641C85.653 28.6641 86.0549 29.1837 86.0549 30.0567C86.0549 30.969 85.5 31.4398 84.7446 31.4398C83.9366 31.4398 83.4824 30.9255 83.4824 30.0811ZM85.4093 30.0567C85.4093 29.6057 85.2849 29.1785 84.7683 29.1785C84.2618 29.1785 84.1231 29.6057 84.1231 30.062C84.1231 30.5519 84.281 30.9205 84.7781 30.9205C85.2849 30.9205 85.4093 30.5389 85.4093 30.0567Z" fill="white"/>
<path d="M87.1867 29.2272H86.3403V28.7333H88.6642V29.2272H87.8179V31.3814H87.1867V29.2272Z" fill="white"/>
<path d="M88.9498 30.1006C88.9498 29.0201 89.4904 28.6694 90.2275 28.6694C90.9829 28.6694 91.2889 29.1738 91.2889 30.0033V30.2364H89.5869C89.5869 30.8186 89.9455 30.9156 90.4082 30.9156C90.6465 30.899 90.8831 30.8634 91.1158 30.8091L91.2165 31.3089C90.9164 31.3961 90.6057 31.4401 90.2935 31.4398C89.471 31.4398 88.9498 31.1388 88.9498 30.1006ZM90.6331 29.8048C90.6376 29.4069 90.4809 29.1303 90.1646 29.1303C89.8442 29.1303 89.6291 29.368 89.6002 29.8048H90.6331Z" fill="white"/>
<path d="M91.6792 30.6442C91.6792 29.9792 92.2718 29.8434 92.7549 29.8385L93.2721 29.8338V29.6011C93.2721 29.2951 93.1002 29.2223 92.7223 29.2223C92.4765 29.2328 92.2326 29.272 91.9956 29.339L91.8663 28.8583C92.1761 28.7369 92.5049 28.673 92.837 28.6694C93.5592 28.6694 93.8936 28.8876 93.8936 29.4554V30.7461C93.8936 30.872 93.9988 30.9004 94.1327 30.9109L94.1041 31.4049H93.9657C93.6882 31.4049 93.3877 31.3373 93.3296 31.1045C93.1015 31.3005 92.8153 31.4132 92.5167 31.4246C91.9852 31.4253 91.6792 31.1536 91.6792 30.6442ZM93.2712 30.7507V30.2259L92.7884 30.2451C92.4872 30.25 92.2958 30.3763 92.2958 30.5945C92.2958 30.8273 92.4586 30.9146 92.6594 30.9146C92.8703 30.8918 93.0766 30.8365 93.2712 30.7507Z" fill="white"/>
<path d="M95.2976 29.2272H94.4509V28.7333H96.7748V29.2272H95.9285V31.3814H95.2976V29.2272Z" fill="white"/>
<path d="M97.2184 28.7324H97.8496V28.9315C98.0433 28.7808 98.2757 28.6898 98.5189 28.6694C99.2219 28.6694 99.6378 29.0574 99.6378 29.9502C99.6378 31.0563 98.9734 31.4299 98.2515 31.4299C98.0933 31.4299 97.9597 31.4157 97.8496 31.4055V32.4489H97.2184V28.7324ZM98.9923 30.0033C98.9923 29.4992 98.8249 29.2127 98.3373 29.2127C98.1681 29.2303 98.0034 29.278 97.8505 29.3535V30.8915C97.9898 30.9141 98.1303 30.927 98.2713 30.9301C98.7388 30.9301 98.9923 30.5325 98.9923 30.0033Z" fill="white"/>
<path d="M101.343 28.7324H103.662V31.3814H103.026V29.2223H101.979V31.3814H101.344L101.343 28.7324Z" fill="white"/>
<path d="M104.407 28.7324H105.038V28.9315C105.232 28.7808 105.464 28.6898 105.707 28.6694C106.411 28.6694 106.826 29.0574 106.826 29.9502C106.826 31.0563 106.162 31.4299 105.44 31.4299C105.282 31.4299 105.148 31.4157 105.038 31.4055V32.4489H104.407V28.7324ZM106.181 30.0033C106.181 29.4992 106.014 29.2127 105.526 29.2127C105.357 29.2303 105.192 29.278 105.039 29.3535V30.8915C105.178 30.9141 105.319 30.927 105.46 30.9301C105.927 30.9301 106.181 30.5325 106.181 30.0033Z" fill="white"/>
<path d="M107.251 30.1006C107.251 29.0201 107.791 28.6694 108.528 28.6694C109.284 28.6694 109.59 29.1738 109.59 30.0033V30.2364H107.888C107.888 30.8186 108.246 30.9156 108.709 30.9156C108.947 30.899 109.184 30.8634 109.417 30.8091L109.517 31.3089C109.217 31.396 108.907 31.4401 108.595 31.4398C107.772 31.4398 107.251 31.1388 107.251 30.1006ZM108.934 29.8048C108.938 29.4069 108.782 29.1303 108.465 29.1303C108.145 29.1303 107.93 29.368 107.901 29.8048H108.934Z" fill="white"/>
<path d="M110.161 28.7324H110.965L111.648 30.843L112.409 28.7324H113.187V31.3814H112.589V30.217L112.609 29.5995L111.992 31.3799H111.284L110.725 29.5893L110.758 30.2154V31.3799H110.161L110.161 28.7324Z" fill="white"/>
<path d="M113.932 28.7324H114.568V29.5622H114.927C115.64 29.5622 116.103 29.8823 116.103 30.484C116.102 30.6076 116.075 30.7296 116.026 30.8426C115.976 30.9555 115.904 31.0571 115.815 31.141C115.725 31.225 115.62 31.2896 115.505 31.3309C115.39 31.3722 115.269 31.3894 115.147 31.3814H113.932V28.7324ZM114.568 30.0521V30.8856H114.975C115.266 30.8856 115.453 30.7452 115.453 30.4732C115.453 30.1626 115.209 30.0512 114.889 30.0512L114.568 30.0521Z" fill="white"/>
<path d="M116.461 30.1006C116.461 29.0201 117.001 28.6694 117.738 28.6694C118.494 28.6694 118.8 29.1738 118.8 30.0033V30.2364H117.096C117.096 30.8186 117.455 30.9156 117.918 30.9156C118.156 30.899 118.393 30.8634 118.625 30.8091L118.726 31.3089C118.426 31.3961 118.115 31.4401 117.803 31.4398C116.982 31.4398 116.461 31.1388 116.461 30.1006ZM118.143 29.8048C118.148 29.4069 117.991 29.1303 117.675 29.1303C117.355 29.1303 117.14 29.368 117.111 29.8048H118.143Z" fill="white"/>
<path d="M119.371 28.7324H120.002V28.9315C120.195 28.7808 120.428 28.6898 120.671 28.6694C121.374 28.6694 121.79 29.0574 121.79 29.9502C121.79 31.0563 121.125 31.4299 120.403 31.4299C120.245 31.4299 120.111 31.4157 120.002 31.4055V32.4489H119.37L119.371 28.7324ZM121.145 30.0033C121.145 29.4992 120.978 29.2127 120.49 29.2127C120.321 29.2302 120.156 29.2779 120.003 29.3535V30.8915C120.143 30.9141 120.283 30.927 120.424 30.9301C120.892 30.9301 121.145 30.5325 121.145 30.0033Z" fill="white"/>
</g>
<defs>
<clipPath id="clip0_12_543">
<rect width="98" height="26" fill="white" transform="translate(24 7)"/>
</clipPath>
</defs>
</svg>
