<svg width="119" height="35" viewBox="0 0 119 35" fill="none" xmlns="http://www.w3.org/2000/svg">
<path d="M114.329 34.1943H4.88219C2.47547 34.1943 0.504333 32.2698 0.504333 29.92V4.27431C0.504333 1.92452 2.47547 2.32804e-05 4.88219 2.32804e-05H114.329C116.735 2.32804e-05 118.707 1.92452 118.707 4.27431V29.92C118.707 32.2698 116.735 34.1943 114.329 34.1943Z" fill="black"/>
<path d="M114.329 0.684978C116.356 0.684978 118.005 2.29532 118.005 4.27431V29.92C118.005 31.899 116.356 33.5094 114.329 33.5094H4.88219C2.85524 33.5094 1.20589 31.899 1.20589 29.92V4.27431C1.20589 2.29532 2.85524 0.684978 4.88219 0.684978H114.329ZM114.329 2.32804e-05H4.88219C2.47547 2.32804e-05 0.504333 1.92452 0.504333 4.27431V29.92C0.504333 32.2698 2.47547 34.1943 4.88219 34.1943H114.329C116.735 34.1943 118.707 32.2698 118.707 29.92V4.27431C118.707 1.92452 116.735 2.32804e-05 114.329 2.32804e-05Z" fill="#A6A6A6"/>
<path d="M42.0217 8.75694C42.0217 9.47075 41.8028 10.0424 41.3716 10.4688C40.8758 10.9742 40.2301 11.2285 39.4388 11.2285C38.6825 11.2285 38.0368 10.97 37.5071 10.4602C36.9763 9.94306 36.7114 9.30833 36.7114 8.54857C36.7114 7.78882 36.9763 7.15408 37.5071 6.64117C38.0368 6.12719 38.6825 5.86859 39.4388 5.86859C39.8153 5.86859 40.1743 5.94446 40.5168 6.08551C40.8583 6.22763 41.1363 6.41997 41.3377 6.6572L40.8802 7.10814C40.5289 6.70315 40.0506 6.50332 39.4388 6.50332C38.8872 6.50332 38.4089 6.69139 38.0029 7.07073C37.6012 7.45115 37.3998 7.94376 37.3998 8.54857C37.3998 9.15338 37.6012 9.65027 38.0029 10.0307C38.4089 10.4057 38.8872 10.5981 39.4388 10.5981C40.0243 10.5981 40.5169 10.4057 40.9054 10.0264C41.1615 9.77529 41.3071 9.42907 41.3454 8.98669H39.4388V8.36905H41.9823C42.013 8.50262 42.0217 8.63192 42.0217 8.75694Z" fill="white" stroke="white" stroke-width="0.16" stroke-miterlimit="10"/>
<path d="M46.057 6.61553H43.6678V8.23976H45.8217V8.8574H43.6678V10.4816H46.057V11.111H42.9914V5.98615H46.057V6.61553Z" fill="white" stroke="white" stroke-width="0.16" stroke-miterlimit="10"/>
<path d="M48.9048 11.111H48.2285V6.61553H46.763V5.98615H50.3714V6.61553H48.9048V11.111Z" fill="white" stroke="white" stroke-width="0.16" stroke-miterlimit="10"/>
<path d="M52.9828 11.111V5.98615H53.6581V11.111H52.9828Z" fill="white" stroke="white" stroke-width="0.16" stroke-miterlimit="10"/>
<path d="M56.6515 11.111H55.9806V6.61553H54.5096V5.98615H58.1224V6.61553H56.6515V11.111Z" fill="white" stroke="white" stroke-width="0.16" stroke-miterlimit="10"/>
<path d="M64.9541 10.4517C64.4364 10.97 63.7951 11.2285 63.03 11.2285C62.2606 11.2285 61.6193 10.97 61.1016 10.4517C60.585 9.93451 60.3278 9.29978 60.3278 8.54857C60.3278 7.79736 60.585 7.16263 61.1016 6.64544C61.6193 6.12719 62.2606 5.86859 63.03 5.86859C63.7907 5.86859 64.432 6.12719 64.9497 6.64972C65.4707 7.17118 65.7279 7.80164 65.7279 8.54857C65.7279 9.29978 65.4707 9.93451 64.9541 10.4517ZM61.6017 10.0221C61.9914 10.4057 62.4653 10.5981 63.03 10.5981C63.5904 10.5981 64.0687 10.4057 64.4539 10.0221C64.8425 9.63851 65.0395 9.1459 65.0395 8.54857C65.0395 7.95124 64.8425 7.45863 64.4539 7.07501C64.0687 6.69139 63.5904 6.49905 63.03 6.49905C62.4653 6.49905 61.9914 6.69139 61.6017 7.07501C61.2132 7.45863 61.0162 7.95124 61.0162 8.54857C61.0162 9.1459 61.2132 9.63851 61.6017 10.0221Z" fill="white" stroke="white" stroke-width="0.16" stroke-miterlimit="10"/>
<path d="M66.6768 11.111V5.98615H67.4976L70.0499 9.97192H70.0795L70.0499 8.98669V5.98615H70.7252V11.111H70.0203L67.3477 6.92863H67.3181L67.3477 7.91812V11.111H66.6768Z" fill="white" stroke="white" stroke-width="0.16" stroke-miterlimit="10"/>
<path d="M60.1614 18.5953C58.1049 18.5953 56.4249 20.1234 56.4249 22.2317C56.4249 24.3229 58.1049 25.867 60.1614 25.867C62.2223 25.867 63.9023 24.3229 63.9023 22.2317C63.9023 20.1234 62.2223 18.5953 60.1614 18.5953ZM60.1614 24.4351C59.033 24.4351 58.0622 23.5257 58.0622 22.2317C58.0622 20.9205 59.033 20.0272 60.1614 20.0272C61.2898 20.0272 62.265 20.9205 62.265 22.2317C62.265 23.5257 61.2898 24.4351 60.1614 24.4351ZM52.0087 18.5953C49.9478 18.5953 48.2722 20.1234 48.2722 22.2317C48.2722 24.3229 49.9478 25.867 52.0087 25.867C54.0685 25.867 55.7452 24.3229 55.7452 22.2317C55.7452 20.1234 54.0685 18.5953 52.0087 18.5953ZM52.0087 24.4351C50.8792 24.4351 49.9052 23.5257 49.9052 22.2317C49.9052 20.9205 50.8792 20.0272 52.0087 20.0272C53.1371 20.0272 54.1079 20.9205 54.1079 22.2317C54.1079 23.5257 53.1371 24.4351 52.0087 24.4351ZM42.3074 19.7098V21.255H46.0866C45.976 22.1184 45.6805 22.7531 45.2274 23.1955C44.6758 23.7298 43.8167 24.3229 42.3074 24.3229C39.9817 24.3229 38.1605 22.4903 38.1605 20.2195C38.1605 17.9488 39.9817 16.1162 42.3074 16.1162C43.5649 16.1162 44.4799 16.596 45.1552 17.2179L46.2704 16.1291C45.3259 15.2485 44.0695 14.5721 42.3074 14.5721C39.1181 14.5721 36.4378 17.1057 36.4378 20.2195C36.4378 23.3334 39.1181 25.867 42.3074 25.867C44.0312 25.867 45.3259 25.3156 46.3438 24.2812C47.3868 23.2628 47.7119 21.831 47.7119 20.6748C47.7119 20.3157 47.6812 19.9855 47.6265 19.7098H42.3074ZM81.9774 20.9077C81.6698 20.0945 80.7209 18.5953 78.7881 18.5953C76.8728 18.5953 75.2781 20.0689 75.2781 22.2317C75.2781 24.2684 76.8564 25.867 78.972 25.867C80.6826 25.867 81.6698 24.8486 82.0759 24.2555L80.8063 23.4295C80.3827 24.0344 79.8059 24.4351 78.972 24.4351C78.1434 24.4351 77.5492 24.0643 77.1683 23.3334L82.1492 21.3212L81.9774 20.9077ZM76.899 22.1184C76.8564 20.7164 78.0143 19.9984 78.8439 19.9984C79.494 19.9984 80.0456 20.3157 80.2295 20.7699L76.899 22.1184ZM72.8506 25.6458H74.4879V14.96H72.8506V25.6458ZM70.1692 19.4053H70.1145C69.7467 18.98 69.0452 18.5953 68.1565 18.5953C66.2915 18.5953 64.5863 20.1939 64.5863 22.2434C64.5863 24.2812 66.2915 25.867 68.1565 25.867C69.0452 25.867 69.7467 25.4791 70.1145 25.0409H70.1692V25.5624C70.1692 26.9526 69.4085 27.6996 68.1816 27.6996C67.1813 27.6996 66.5607 26.9943 66.3046 26.4012L64.8807 26.9815C65.2911 27.9453 66.378 29.1314 68.1816 29.1314C70.1013 29.1314 71.7211 28.0287 71.7211 25.3455V18.8165H70.1692V19.4053ZM68.2966 24.4351C67.1682 24.4351 66.2236 23.5129 66.2236 22.2434C66.2236 20.9622 67.1682 20.0272 68.2966 20.0272C69.4085 20.0272 70.2852 20.9622 70.2852 22.2434C70.2852 23.5129 69.4085 24.4351 68.2966 24.4351ZM89.643 14.96H85.727V25.6458H87.3599V21.5969H89.643C91.4565 21.5969 93.235 20.3157 93.235 18.278C93.235 16.2413 91.4521 14.96 89.643 14.96ZM89.6857 20.1106H87.3599V16.4464H89.6857C90.9049 16.4464 91.601 17.4348 91.601 18.278C91.601 19.105 90.9049 20.1106 89.6857 20.1106ZM99.7799 18.575C98.6001 18.575 97.3732 19.0837 96.8686 20.211L98.3177 20.8041C98.6296 20.211 99.2031 20.0187 99.8095 20.0187C100.657 20.0187 101.516 20.5155 101.529 21.3928V21.505C101.233 21.3383 100.601 21.0915 99.8226 21.0915C98.2619 21.0915 96.6716 21.9303 96.6716 23.4958C96.6716 24.9277 97.95 25.8499 99.387 25.8499C100.486 25.8499 101.092 25.3658 101.473 24.8027H101.529V25.6287H103.106V21.5296C103.106 19.635 101.657 18.575 99.7799 18.575ZM99.5829 24.4308C99.0488 24.4308 98.3046 24.1722 98.3046 23.5257C98.3046 22.6986 99.2327 22.3813 100.036 22.3813C100.755 22.3813 101.092 22.5362 101.529 22.7403C101.401 23.7298 100.529 24.4308 99.5829 24.4308ZM108.852 18.809L106.975 23.4413H106.919L104.979 18.809H103.218L106.133 25.2824L104.47 28.8846H106.176L110.669 18.809H108.852ZM94.1325 25.6458H95.7698V14.96H94.1325V25.6458Z" fill="white"/>
<path d="M9.64091 6.44456C9.38371 6.70743 9.23486 7.11669 9.23486 7.6467V26.5519C9.23486 27.0819 9.38371 27.4912 9.64091 27.754L9.70439 27.8117L20.5549 17.2222V16.9721L9.70439 6.38259L9.64091 6.44456Z" fill="url(#paint0_linear_9_60)"/>
<path d="M24.1677 20.7538L20.5549 17.2222V16.9721L24.1721 13.4405L24.2531 13.4865L28.5368 15.8662C29.7593 16.5415 29.7593 17.6528 28.5368 18.3324L24.2531 20.7079L24.1677 20.7538Z" fill="url(#paint1_linear_9_60)"/>
<path d="M24.2531 20.7079L20.5549 17.0972L9.64093 27.754C10.047 28.1708 10.7091 28.221 11.4621 27.8043L24.2531 20.7079Z" fill="url(#paint2_linear_9_60)"/>
<path d="M24.2531 13.4865L11.4621 6.39011C10.7091 5.97764 10.047 6.02786 9.64093 6.4446L20.5549 17.0972L24.2531 13.4865Z" fill="url(#paint3_linear_9_60)"/>
<defs>
<linearGradient id="paint0_linear_9_60" x1="19.5915" y1="26.7488" x2="5.24906" y2="12.0588" gradientUnits="userSpaceOnUse">
<stop stop-color="#00A0FF"/>
<stop offset="0.0066" stop-color="#00A1FF"/>
<stop offset="0.2601" stop-color="#00BEFF"/>
<stop offset="0.5122" stop-color="#00D2FF"/>
<stop offset="0.7604" stop-color="#00DFFF"/>
<stop offset="1" stop-color="#00E3FF"/>
</linearGradient>
<linearGradient id="paint1_linear_9_60" x1="30.1287" y1="17.096" x2="8.9426" y2="17.096" gradientUnits="userSpaceOnUse">
<stop stop-color="#FFE000"/>
<stop offset="0.4087" stop-color="#FFBD00"/>
<stop offset="0.7754" stop-color="#FFA500"/>
<stop offset="1" stop-color="#FF9C00"/>
</linearGradient>
<linearGradient id="paint2_linear_9_60" x1="22.2422" y1="15.1343" x2="2.79263" y2="-4.7865" gradientUnits="userSpaceOnUse">
<stop stop-color="#FF3A44"/>
<stop offset="1" stop-color="#C31162"/>
</linearGradient>
<linearGradient id="paint3_linear_9_60" x1="6.89365" y1="34.0437" x2="15.5787" y2="25.1483" gradientUnits="userSpaceOnUse">
<stop stop-color="#32A071"/>
<stop offset="0.0685" stop-color="#2DA771"/>
<stop offset="0.4762" stop-color="#15CF74"/>
<stop offset="0.8009" stop-color="#06E775"/>
<stop offset="1" stop-color="#00F076"/>
</linearGradient>
</defs>
</svg>
