<svg width="148" height="43" viewBox="0 0 148 43" fill="none" xmlns="http://www.w3.org/2000/svg">
<path d="M146.2 37.5736C146.2 39.8369 144.329 41.6703 142.014 41.6703H5.00875C2.69492 41.6703 0.816772 39.8369 0.816772 37.5736V4.90344C0.816772 2.64114 2.69492 0.801353 5.00875 0.801353H142.013C144.329 0.801353 146.199 2.64114 146.199 4.90344L146.2 37.5736Z" fill="black"/>
<path d="M141.572 0.850762C144.093 0.850762 146.145 2.85092 146.145 5.30896V37.1627C146.145 39.6207 144.093 41.6209 141.572 41.6209H5.44508C2.92401 41.6209 0.872574 39.6207 0.872574 37.1627V5.30896C0.872574 2.85092 2.92401 0.850762 5.44508 0.850762H141.572ZM141.572 5.59725e-06H5.44508C2.45165 5.59725e-06 0 2.39036 0 5.30896V37.1627C0 40.0813 2.45165 42.4716 5.44508 42.4716H141.572C144.566 42.4716 147.017 40.0813 147.017 37.1627V5.30896C147.017 2.39036 144.566 5.59725e-06 141.572 5.59725e-06Z" fill="#A6A6A6"/>
<path d="M32.8099 21.0065C32.7783 17.5843 35.6838 15.9194 35.8167 15.8419C34.1712 13.5028 31.6207 13.1832 30.7244 13.1577C28.5823 12.9379 26.5045 14.4074 25.4133 14.4074C24.3003 14.4074 22.62 13.1789 20.8089 13.215C18.4784 13.2501 16.2982 14.5656 15.1025 16.6085C12.6348 20.7739 14.4752 26.8952 16.8395 30.2621C18.0221 31.9111 19.4041 33.7522 21.213 33.6874C22.9826 33.6163 23.6436 32.5874 25.7792 32.5874C27.8952 32.5874 28.5159 33.6874 30.3607 33.646C32.2599 33.6163 33.4557 31.9896 34.597 30.3258C35.9637 28.4358 36.5126 26.5745 36.5343 26.4789C36.4897 26.4641 32.8458 25.1082 32.8099 21.0065Z" fill="white"/>
<path d="M29.325 10.9428C30.2768 9.78226 30.9281 8.20338 30.7473 6.60114C29.3697 6.6606 27.6469 7.53021 26.6548 8.66526C25.777 9.66547 24.9929 11.3049 25.1955 12.8466C26.743 12.9591 28.3319 12.0853 29.325 10.9428Z" fill="white"/>
<path d="M58.4203 33.4506H55.9471L54.5924 29.3001H49.8835L48.593 33.4506H46.1852L50.8505 19.3203H53.7321L58.4203 33.4506ZM54.184 27.5588L52.9589 23.869C52.8293 23.4921 52.5864 22.6044 52.2281 21.2071H52.1846C52.0419 21.8081 51.8121 22.6958 51.4963 23.869L50.2929 27.5588H54.184Z" fill="white"/>
<path d="M70.418 28.2309C70.418 29.9637 69.9377 31.3335 68.9772 32.339C68.1169 33.2341 67.0486 33.6811 65.7733 33.6811C64.3968 33.6811 63.408 33.199 62.8057 32.2349H62.7622V37.6023H60.4404V26.6159C60.4404 25.5265 60.411 24.4085 60.3544 23.2617H62.3963L62.5259 24.8767H62.5694C63.3437 23.6599 64.5188 23.0525 66.0957 23.0525C67.3284 23.0525 68.3576 23.5272 69.1808 24.4775C70.0063 25.4288 70.418 26.6796 70.418 28.2309ZM68.0526 28.3137C68.0526 27.322 67.8239 26.5044 67.3644 25.861C66.8623 25.1899 66.1882 24.8544 65.3432 24.8544C64.7703 24.8544 64.2498 25.0413 63.7848 25.4097C63.3187 25.7814 63.0137 26.2666 62.8711 26.8676C62.7992 27.1479 62.7633 27.3772 62.7633 27.5577V29.2566C62.7633 29.9977 62.9963 30.6231 63.4624 31.1338C63.9285 31.6446 64.534 31.8994 65.2789 31.8994C66.1534 31.8994 66.834 31.5702 67.3208 30.914C67.8087 30.2568 68.0526 29.3904 68.0526 28.3137Z" fill="white"/>
<path d="M82.4374 28.2309C82.4374 29.9637 81.9571 31.3335 80.9955 32.339C80.1363 33.2341 79.068 33.6811 77.7927 33.6811C76.4162 33.6811 75.4274 33.199 74.8263 32.2349H74.7827V37.6023H72.4609V26.6159C72.4609 25.5265 72.4315 24.4085 72.3749 23.2617H74.4168L74.5464 24.8767H74.5899C75.3631 23.6599 76.5382 23.0525 78.1162 23.0525C79.3479 23.0525 80.377 23.5272 81.2025 24.4775C82.0247 25.4288 82.4374 26.6796 82.4374 28.2309ZM80.072 28.3137C80.072 27.322 79.8423 26.5044 79.3827 25.861C78.8807 25.1899 78.2087 24.8544 77.3626 24.8544C76.7887 24.8544 76.2692 25.0413 75.8031 25.4097C75.337 25.7814 75.0332 26.2666 74.8905 26.8676C74.8197 27.1479 74.7827 27.3772 74.7827 27.5577V29.2566C74.7827 29.9977 75.0157 30.6231 75.4797 31.1338C75.9458 31.6435 76.5513 31.8994 77.2983 31.8994C78.1728 31.8994 78.8534 31.5702 79.3402 30.914C79.8281 30.2568 80.072 29.3904 80.072 28.3137Z" fill="white"/>
<path d="M95.8759 29.4881C95.8759 30.69 95.4479 31.6679 94.5887 32.4228C93.6445 33.2479 92.3301 33.6598 90.641 33.6598C89.0816 33.6598 87.8314 33.3668 86.885 32.7796L87.423 30.8928C88.4423 31.4938 89.5607 31.7953 90.7793 31.7953C91.6538 31.7953 92.3345 31.6021 92.8234 31.2177C93.3102 30.8333 93.5531 30.3173 93.5531 29.6739C93.5531 29.1005 93.3527 28.6174 92.9508 28.2256C92.5512 27.8338 91.8836 27.4696 90.9514 27.133C88.414 26.2103 87.1464 24.8586 87.1464 23.0812C87.1464 21.9196 87.5907 20.9672 88.4804 20.2261C89.3669 19.4839 90.5495 19.1133 92.0284 19.1133C93.3472 19.1133 94.4428 19.3373 95.3173 19.7843L94.7368 21.6297C93.9201 21.1965 92.9966 20.9799 91.9631 20.9799C91.1463 20.9799 90.5082 21.1764 90.0508 21.5671C89.6642 21.9164 89.4703 22.3422 89.4703 22.8466C89.4703 23.4051 89.6914 23.8669 90.1357 24.2301C90.5223 24.5656 91.2247 24.9287 92.2441 25.3205C93.491 25.81 94.4069 26.3823 94.996 27.0385C95.583 27.6926 95.8759 28.5112 95.8759 29.4881Z" fill="white"/>
<path d="M103.552 24.9606H100.993V29.9075C100.993 31.1657 101.444 31.7943 102.348 31.7943C102.763 31.7943 103.107 31.7592 103.379 31.6891L103.443 33.4082C102.986 33.5749 102.384 33.6588 101.638 33.6588C100.721 33.6588 100.004 33.3859 99.487 32.8412C98.9719 32.2954 98.7127 31.3802 98.7127 30.0943V24.9584H97.1881V23.2596H98.7127V21.394L100.993 20.723V23.2596H103.552V24.9606Z" fill="white"/>
<path d="M115.099 28.2723C115.099 29.8384 114.64 31.1243 113.723 32.1298C112.761 33.165 111.485 33.6811 109.894 33.6811C108.36 33.6811 107.14 33.1852 106.229 32.1935C105.319 31.2018 104.864 29.9499 104.864 28.4411C104.864 26.8622 105.332 25.569 106.272 24.5635C107.209 23.5569 108.475 23.0536 110.066 23.0536C111.599 23.0536 112.833 23.5495 113.764 24.5422C114.655 25.5053 115.099 26.7486 115.099 28.2723ZM112.69 28.3456C112.69 27.4059 112.484 26.6 112.067 25.9279C111.581 25.1145 110.885 24.7089 109.983 24.7089C109.05 24.7089 108.341 25.1156 107.854 25.9279C107.437 26.601 107.231 27.4197 107.231 28.388C107.231 29.3277 107.437 30.1336 107.854 30.8047C108.356 31.618 109.057 32.0236 109.962 32.0236C110.849 32.0236 111.545 31.6095 112.047 30.7834C112.475 30.0986 112.69 29.2842 112.69 28.3456Z" fill="white"/>
<path d="M122.646 25.2526C122.416 25.2112 122.171 25.1899 121.914 25.1899C121.097 25.1899 120.466 25.4904 120.022 26.0925C119.635 26.6234 119.441 27.2944 119.441 28.1045V33.4507H117.12L117.142 26.4705C117.142 25.2961 117.113 24.2269 117.055 23.2628H119.077L119.162 25.2122H119.227C119.472 24.5422 119.858 24.0029 120.387 23.5983C120.905 23.2341 121.463 23.0525 122.066 23.0525C122.28 23.0525 122.474 23.0674 122.646 23.094V25.2526Z" fill="white"/>
<path d="M133.03 27.8741C133.03 28.2797 133.003 28.6216 132.945 28.9009H125.98C126.007 29.9075 126.343 30.6773 126.99 31.2082C127.577 31.6828 128.336 31.9206 129.268 31.9206C130.3 31.9206 131.241 31.7603 132.087 31.4386L132.451 33.01C131.462 33.4305 130.294 33.6397 128.947 33.6397C127.327 33.6397 126.055 33.1746 125.129 32.2455C124.206 31.3165 123.743 30.0688 123.743 28.5038C123.743 26.9674 124.173 25.6879 125.034 24.6675C125.936 23.5781 127.155 23.0334 128.688 23.0334C130.194 23.0334 131.334 23.5781 132.109 24.6675C132.722 25.5329 133.03 26.6032 133.03 27.8741ZM130.816 27.287C130.831 26.6159 130.68 26.0362 130.365 25.5467C129.963 24.917 129.346 24.6027 128.515 24.6027C127.756 24.6027 127.138 24.9096 126.667 25.5254C126.28 26.0149 126.05 26.6021 125.98 27.2859H130.816V27.287Z" fill="white"/>
<path d="M53.4162 10.6275C53.4162 11.8772 53.0318 12.818 52.264 13.4497C51.5529 14.0326 50.5423 14.3246 49.2333 14.3246C48.5843 14.3246 48.0289 14.297 47.5638 14.2418V7.41343C48.1704 7.31787 48.8238 7.26903 49.5295 7.26903C50.7764 7.26903 51.7163 7.53342 52.3501 8.06219C53.0601 8.65998 53.4162 9.51472 53.4162 10.6275ZM52.2129 10.6583C52.2129 9.84812 51.9929 9.22697 51.5529 8.79376C51.113 8.36161 50.4704 8.14501 49.6243 8.14501C49.2649 8.14501 48.9589 8.16837 48.7051 8.21721V13.4083C48.8456 13.4295 49.1026 13.4391 49.4762 13.4391C50.3496 13.4391 51.0237 13.2023 51.4985 12.7288C51.9733 12.2552 52.2129 11.565 52.2129 10.6583Z" fill="white"/>
<path d="M59.7968 11.719C59.7968 12.4888 59.5714 13.1195 59.1205 13.6143C58.6479 14.1229 58.0217 14.3767 57.2398 14.3767C56.4862 14.3767 55.8861 14.1335 55.4385 13.6451C54.992 13.1577 54.7688 12.5429 54.7688 11.8018C54.7688 11.0267 54.9986 10.3907 55.4603 9.89696C55.9221 9.40323 56.5428 9.15583 57.3247 9.15583C58.0783 9.15583 58.6838 9.39898 59.1423 9.88635C59.5779 10.3599 59.7968 10.9715 59.7968 11.719ZM58.613 11.7551C58.613 11.2932 58.5107 10.8972 58.307 10.567C58.0674 10.1677 57.7266 9.9681 57.2833 9.9681C56.8249 9.9681 56.4764 10.1677 56.2368 10.567C56.0321 10.8972 55.9308 11.2996 55.9308 11.7753C55.9308 12.2372 56.0331 12.6332 56.2368 12.9634C56.484 13.3626 56.8281 13.5623 57.2724 13.5623C57.7081 13.5623 58.05 13.3595 58.2961 12.9528C58.5074 12.6162 58.613 12.217 58.613 11.7551Z" fill="white"/>
<path d="M68.352 9.25776L66.7457 14.263H65.7003L65.0349 12.0896C64.8661 11.547 64.7289 11.0076 64.6222 10.4725H64.6015C64.5024 11.0225 64.3652 11.5608 64.1887 12.0896L63.482 14.263H62.4245L60.9141 9.25776H62.0869L62.6674 11.6372C62.8079 12.2 62.9233 12.7362 63.0159 13.2437H63.0366C63.1215 12.8254 63.262 12.2924 63.4602 11.6479L64.1887 9.25883H65.1188L65.8168 11.5969C65.9856 12.1671 66.1228 12.716 66.2285 13.2448H66.26C66.3374 12.7298 66.4539 12.1809 66.6085 11.5969L67.2314 9.25883H68.352V9.25776Z" fill="white"/>
<path d="M74.2687 14.2631H73.1274V11.3962C73.1274 10.5128 72.7833 10.0711 72.0929 10.0711C71.7542 10.0711 71.4808 10.1921 71.2685 10.4353C71.0583 10.6784 70.9516 10.9651 70.9516 11.2932V14.262H69.8103V10.688C69.8103 10.2484 69.7961 9.77168 69.7689 9.25565H70.7719L70.8253 10.0382H70.8568C70.9897 9.79504 71.1879 9.59436 71.4482 9.43403C71.7575 9.24715 72.1038 9.15265 72.4827 9.15265C72.9619 9.15265 73.3605 9.30343 73.6774 9.60604C74.0716 9.9766 74.2687 10.5298 74.2687 11.2646V14.2631Z" fill="white"/>
<path d="M77.4159 14.263H76.2758V6.96111H77.4159V14.263Z" fill="white"/>
<path d="M84.1352 11.719C84.1352 12.4888 83.9097 13.1195 83.4589 13.6143C82.9863 14.1229 82.359 14.3767 81.5782 14.3767C80.8235 14.3767 80.2234 14.1335 79.7769 13.6451C79.3304 13.1577 79.1072 12.5429 79.1072 11.8018C79.1072 11.0267 79.337 10.3907 79.7987 9.89696C80.2604 9.40323 80.8812 9.15583 81.662 9.15583C82.4167 9.15583 83.0211 9.39898 83.4807 9.88635C83.9163 10.3599 84.1352 10.9715 84.1352 11.719ZM82.9503 11.7551C82.9503 11.2932 82.848 10.8972 82.6443 10.567C82.4058 10.1677 82.0639 9.9681 81.6217 9.9681C81.1621 9.9681 80.8137 10.1677 80.5752 10.567C80.3704 10.8972 80.2692 11.2996 80.2692 11.7753C80.2692 12.2372 80.3715 12.6332 80.5752 12.9634C80.8224 13.3626 81.1665 13.5623 81.6108 13.5623C82.0464 13.5623 82.3873 13.3595 82.6334 12.9528C82.8458 12.6162 82.9503 12.217 82.9503 11.7551Z" fill="white"/>
<path d="M89.6587 14.263H88.6339L88.549 13.6865H88.5174C88.1667 14.1463 87.6669 14.3767 87.0178 14.3767C86.5332 14.3767 86.1412 14.2248 85.8461 13.9233C85.5782 13.6493 85.4442 13.3085 85.4442 12.904C85.4442 12.2924 85.7056 11.8262 86.2316 11.5035C86.7565 11.1807 87.4948 11.0225 88.4455 11.0299V10.9365C88.4455 10.2771 88.0905 9.94793 87.3794 9.94793C86.873 9.94793 86.4265 10.0722 86.041 10.3185L85.809 9.58798C86.286 9.30024 86.8752 9.15583 87.57 9.15583C88.9116 9.15583 89.5847 9.846 89.5847 11.2263V13.0696C89.5847 13.5697 89.6097 13.9679 89.6587 14.263ZM88.4739 12.5429V11.771C87.2149 11.7498 86.5855 12.0864 86.5855 12.7797C86.5855 13.0409 86.6574 13.2363 86.8044 13.3669C86.9514 13.4975 87.1387 13.5623 87.362 13.5623C87.6124 13.5623 87.8466 13.4848 88.06 13.3308C88.2746 13.1758 88.4063 12.9793 88.4553 12.7383C88.4673 12.6842 88.4739 12.6183 88.4739 12.5429Z" fill="white"/>
<path d="M96.1437 14.263H95.1309L95.0776 13.4593H95.046C94.7226 14.0709 94.1715 14.3767 93.3972 14.3767C92.7787 14.3767 92.2636 14.1399 91.8552 13.6663C91.4468 13.1928 91.2432 12.578 91.2432 11.823C91.2432 11.0129 91.4642 10.3567 91.9086 9.85555C92.3387 9.38836 92.8658 9.15477 93.4931 9.15477C94.1824 9.15477 94.6648 9.38093 94.9393 9.83431H94.9611V6.96111H96.1034V12.9146C96.1034 13.4019 96.1165 13.8511 96.1437 14.263ZM94.9611 12.1522V11.3176C94.9611 11.1732 94.9502 11.0564 94.9295 10.9672C94.8652 10.6997 94.7269 10.4746 94.5167 10.293C94.3044 10.1114 94.0485 10.0201 93.7533 10.0201C93.3275 10.0201 92.9943 10.1847 92.7493 10.5149C92.5064 10.8451 92.3834 11.2667 92.3834 11.7816C92.3834 12.2764 92.4999 12.6778 92.734 12.9868C92.9812 13.3159 93.3145 13.4805 93.7316 13.4805C94.1062 13.4805 94.4057 13.3435 94.6333 13.0685C94.8532 12.8148 94.9611 12.509 94.9611 12.1522Z" fill="white"/>
<path d="M105.905 11.719C105.905 12.4888 105.679 13.1195 105.228 13.6143C104.756 14.1229 104.131 14.3767 103.348 14.3767C102.595 14.3767 101.995 14.1335 101.546 13.6451C101.1 13.1577 100.877 12.5429 100.877 11.8018C100.877 11.0267 101.106 10.3907 101.568 9.89696C102.03 9.40323 102.651 9.15583 103.434 9.15583C104.186 9.15583 104.793 9.39898 105.25 9.88635C105.686 10.3599 105.905 10.9715 105.905 11.719ZM104.722 11.7551C104.722 11.2932 104.62 10.8972 104.416 10.567C104.175 10.1677 103.836 9.9681 103.391 9.9681C102.934 9.9681 102.585 10.1677 102.345 10.567C102.14 10.8972 102.039 11.2996 102.039 11.7753C102.039 12.2372 102.141 12.6332 102.345 12.9634C102.592 13.3626 102.936 13.5623 103.38 13.5623C103.816 13.5623 104.159 13.3595 104.405 12.9528C104.615 12.6162 104.722 12.217 104.722 11.7551Z" fill="white"/>
<path d="M112.041 14.2631H110.901V11.3962C110.901 10.5128 110.557 10.0711 109.865 10.0711C109.527 10.0711 109.253 10.1921 109.042 10.4353C108.831 10.6784 108.725 10.9651 108.725 11.2932V14.262H107.583V10.688C107.583 10.2484 107.57 9.77168 107.542 9.25565H108.544L108.598 10.0382H108.629C108.763 9.79504 108.961 9.59436 109.221 9.43403C109.531 9.24715 109.876 9.15265 110.256 9.15265C110.734 9.15265 111.133 9.30343 111.45 9.60604C111.845 9.9766 112.041 10.5298 112.041 11.2646V14.2631Z" fill="white"/>
<path d="M119.722 10.0913H118.465V12.5228C118.465 13.1407 118.689 13.4497 119.131 13.4497C119.335 13.4497 119.505 13.4327 119.639 13.3977L119.669 14.2418C119.443 14.3246 119.147 14.366 118.782 14.366C118.331 14.366 117.981 14.2323 117.727 13.9647C117.472 13.6971 117.346 13.2469 117.346 12.6152V10.0913H116.595V9.25777H117.346V8.34038L118.464 8.01123V9.25671H119.721V10.0913H119.722Z" fill="white"/>
<path d="M125.764 14.263H124.622V11.4174C124.622 10.5202 124.277 10.0711 123.588 10.0711C123.059 10.0711 122.697 10.3312 122.499 10.8515C122.465 10.9609 122.446 11.0947 122.446 11.2518V14.262H121.306V6.96111H122.446V9.97766H122.468C122.827 9.42871 123.342 9.15477 124.01 9.15477C124.482 9.15477 124.873 9.30554 125.184 9.60815C125.57 9.98509 125.764 10.5457 125.764 11.2868V14.263Z" fill="white"/>
<path d="M131.996 11.5236C131.996 11.7232 131.981 11.891 131.954 12.028H128.531C128.546 12.5228 128.71 12.8997 129.027 13.1609C129.316 13.3945 129.69 13.5113 130.147 13.5113C130.654 13.5113 131.115 13.4327 131.531 13.2745L131.71 14.0475C131.223 14.2535 130.65 14.3565 129.987 14.3565C129.192 14.3565 128.566 14.1282 128.113 13.6716C127.658 13.2151 127.432 12.6024 127.432 11.8337C127.432 11.0787 127.643 10.4501 128.066 9.94898C128.508 9.41384 129.106 9.14627 129.861 9.14627C130.599 9.14627 131.16 9.41384 131.539 9.94898C131.845 10.3737 131.996 10.8993 131.996 11.5236ZM130.907 11.2359C130.916 10.9057 130.841 10.6211 130.686 10.3811C130.488 10.0722 130.186 9.91713 129.778 9.91713C129.406 9.91713 129.102 10.0679 128.87 10.3705C128.68 10.6115 128.568 10.8993 128.531 11.2359H130.907Z" fill="white"/>
</svg>
