<svg width="119" height="35" viewBox="0 0 119 35" fill="none" xmlns="http://www.w3.org/2000/svg">
<path d="M114.622 34.1943H5.17562C2.76889 34.1943 0.79776 32.2698 0.79776 29.92V4.27431C0.79776 1.92452 2.76889 2.09183e-05 5.17562 2.09183e-05H114.622C117.029 2.09183e-05 119 1.92452 119 4.27431V29.92C119 32.2698 117.029 34.1943 114.622 34.1943Z" fill="black"/>
<path d="M114.622 0.684976C116.649 0.684976 118.298 2.29531 118.298 4.27431V29.92C118.298 31.899 116.649 33.5094 114.622 33.5094H5.17562C3.14867 33.5094 1.49931 31.899 1.49931 29.92V4.27431C1.49931 2.29531 3.14867 0.684976 5.17562 0.684976H114.622ZM114.622 2.09183e-05H5.17562C2.76889 2.09183e-05 0.79776 1.92452 0.79776 4.27431V29.92C0.79776 32.2698 2.76889 34.1943 5.17562 34.1943H114.622C117.029 34.1943 119 32.2698 119 29.92V4.27431C119 1.92452 117.029 2.09183e-05 114.622 2.09183e-05Z" fill="#A6A6A6"/>
<g clip-path="url(#clip0_12_295)">
<path d="M40.6445 14.6299C40.4243 13.0584 39.8547 11.5583 38.9789 10.2431C38.1031 8.92792 36.944 7.8321 35.5893 7.03859C34.2345 6.24507 32.7197 5.77464 31.1594 5.6629C29.5991 5.55116 28.0341 5.80102 26.583 6.3936L40.6445 14.6299Z" fill="#D40F7D"/>
<path d="M26.5823 25.8113C28.0335 26.4041 29.5986 26.6541 31.1592 26.5424C32.7197 26.4307 34.2347 25.9602 35.5896 25.1666C36.9445 24.3729 38.1037 23.2768 38.9794 21.9613C39.8552 20.6459 40.4246 19.1455 40.6445 17.5737L26.5823 25.8113Z" fill="#D40F7D"/>
<path d="M24.0738 7.86624C22.8422 8.84467 21.8462 10.0947 21.1613 11.5216C20.4763 12.9485 20.1204 14.5149 20.1204 16.1021C20.1204 17.6893 20.4763 19.2557 21.1613 20.6826C21.8462 22.1095 22.8422 23.3595 24.0738 24.3379V7.86624Z" fill="#D40F7D"/>
<path d="M49.9441 12.7564V11.8368H44.4629V12.7564H46.6515V18.3437H47.7571V12.7564H49.9441ZM55.8857 15.3462V14.9237C55.8857 13.0743 54.955 11.6837 52.9944 11.6837C51.2228 11.6837 49.9277 13.0613 49.9277 15C49.9277 17.0796 51.0837 18.4958 53.3341 18.4958C54.065 18.4945 54.7894 18.3562 55.4708 18.088V16.9665C55.1688 17.2093 54.1262 17.5789 53.3845 17.5789C52.7913 17.5884 52.2186 17.3588 51.792 16.9404C51.3653 16.5221 51.1195 15.9492 51.1084 15.3472L55.8857 15.3462ZM54.7164 14.5039H51.1084C51.1724 13.6091 51.8261 12.6035 52.9824 12.6035C54.0373 12.6045 54.7164 13.4714 54.7164 14.5049V14.5039ZM62.1377 18.3437V11.8387H57.5627V13.7138C57.5627 16.5969 57.4246 17.4641 56.621 17.4641C56.4165 17.4639 56.2131 17.4339 56.017 17.3749V18.3571C56.2349 18.4138 56.4586 18.4439 56.6834 18.4469C58.5561 18.4469 58.6693 16.2651 58.6693 14.6066V12.7564H61.0324V18.3437H62.1377ZM68.9853 15.3462V14.9237C68.9853 13.0743 68.0546 11.6837 66.0952 11.6837C64.3222 11.6837 63.0278 13.0613 63.0278 15C63.0278 17.0796 64.1843 18.4958 66.4344 18.4958C67.1655 18.4945 67.8901 18.3562 68.5717 18.088V16.9665C68.2697 17.2093 67.2246 17.5789 66.4846 17.5789C65.8916 17.5882 65.3192 17.3585 64.8927 16.9401C64.4663 16.5218 64.2207 15.949 64.2098 15.3472L68.9853 15.3462ZM67.8166 14.5039H64.2093C64.2717 13.6091 64.9257 12.6035 66.0822 12.6035C67.1379 12.6045 67.8168 13.4714 67.8168 14.5049L67.8166 14.5039ZM71.0033 18.3437V14.9761H71.0293L74.1966 18.3447H75.6172L72.2612 14.8621L75.2655 11.8387H73.8824L71.0295 14.8375H71.0035V11.8387H69.8979V18.3447L71.0033 18.3437ZM80.8508 18.3437V14.326C80.8508 12.566 80.1344 11.6854 78.3496 11.6854C77.6053 11.7095 76.8859 11.963 76.2871 12.4121V13.3695C76.8072 12.881 77.4888 12.6081 78.1975 12.6045C79.2664 12.6045 79.7562 13.0892 79.7562 14.0461V14.5432C79.308 14.3802 78.8362 14.294 78.3601 14.2882C77.4924 14.2882 75.5435 14.6324 75.5435 16.4436C75.5435 17.6943 76.3735 18.4976 77.8446 18.4976C78.787 18.4976 79.415 17.8981 79.8432 17.4641H79.8676V18.3447L80.8508 18.3437ZM79.7567 16.6983C79.2808 17.2078 78.6362 17.5211 77.9467 17.5779C77.3684 17.5779 76.7272 17.1571 76.7272 16.4426C76.7272 15.2307 78.1608 15.1037 78.7256 15.1037C79.0796 15.1196 79.4283 15.1969 79.7567 15.3321V16.6983ZM88.3494 15.0008C88.3494 13.0621 87.0298 11.6844 85.2188 11.6844C84.8053 11.6933 84.3987 11.7939 84.0275 11.979C83.6563 12.1642 83.3295 12.4295 83.0701 12.7564H83.0456V11.8368H82.0029V20.5168H83.096V17.5036H83.1205C83.3869 17.8073 83.7118 18.0523 84.0753 18.2233C84.4388 18.3943 84.833 18.4877 85.2335 18.4978C87.1307 18.4978 88.3499 16.9287 88.3499 15.0018L88.3494 15.0008ZM87.1682 15.0656C87.1682 16.4804 86.3886 17.5779 85.0677 17.5779C84.6589 17.5737 84.2591 17.4561 83.9114 17.238C83.5637 17.0199 83.2813 16.7095 83.0948 16.3404V13.7645C83.4345 13.2547 83.8484 12.6045 85.0677 12.6045C86.415 12.6045 87.1684 13.7257 87.1684 15.0679L87.1682 15.0656ZM93.7726 12.7564V11.8368H88.2921V12.7564H90.4786V18.3437H91.5849V12.7564H93.7726ZM99.0211 18.3437V14.326C99.0211 12.566 98.3047 11.6854 96.5197 11.6854C95.7756 11.7095 95.0565 11.963 94.4579 12.4121V13.3695C94.978 12.8811 95.6596 12.6081 96.3683 12.6045C97.4362 12.6045 97.9268 13.0892 97.9268 14.0461V14.5432C97.4785 14.3804 97.0068 14.2942 96.5307 14.2882C95.6642 14.2882 93.7153 14.6324 93.7153 16.4436C93.7153 17.6943 94.5448 18.4976 96.0159 18.4976C96.9581 18.4976 97.5863 17.8981 98.0142 17.4641H98.0387V18.3447L99.0211 18.3437ZM97.9278 16.6983C97.4518 17.2078 96.8073 17.521 96.1178 17.5779C95.5395 17.5779 94.8978 17.1571 94.8978 16.4426C94.8978 15.2307 96.3313 15.1037 96.8964 15.1037C97.2505 15.1197 97.5993 15.197 97.9278 15.3321V16.6983Z" fill="white"/>
<path d="M44.5758 24.2186C44.5758 23.5001 44.9993 23.0778 45.6228 23.0778C46.3236 23.0778 46.6469 23.4961 46.6469 24.199C46.6469 24.9334 46.2004 25.3125 45.592 25.3125C44.9414 25.3125 44.5758 24.8984 44.5758 24.2186ZM46.1271 24.199C46.1271 23.8359 46.0272 23.4919 45.6113 23.4919C45.2033 23.4919 45.0916 23.8359 45.0916 24.2032C45.0916 24.5977 45.2187 24.8944 45.6192 24.8944C46.0267 24.8944 46.1271 24.5872 46.1271 24.199Z" fill="white"/>
<path d="M47.1193 23.1327H47.6315V23.9962H48.5132V23.1327H49.0253V25.2655H48.5127V24.3956H47.631V25.2655H47.1188L47.1193 23.1327Z" fill="white"/>
<path d="M49.3202 24.9061C49.4894 24.8584 49.6368 24.752 49.7366 24.6054C49.8329 24.4257 49.9098 23.8669 49.9325 23.1327H51.3876V25.2655H50.8762V23.5272H50.3678C50.3065 24.2462 50.2294 24.6834 50.091 24.9218C50.0179 25.029 49.9244 25.1202 49.8158 25.19C49.7073 25.2597 49.5861 25.3066 49.4593 25.3279L49.3202 24.9061Z" fill="white"/>
<path d="M51.841 24.672C51.841 24.1366 52.3181 24.0272 52.7071 24.0232L53.1234 24.0195V23.8321C53.1234 23.5858 52.9851 23.5271 52.6809 23.5271C52.4829 23.5356 52.2866 23.5672 52.0957 23.6211L51.9916 23.2341C52.2411 23.1364 52.5058 23.0849 52.7732 23.082C53.3546 23.082 53.6238 23.2577 53.6238 23.7148V24.754C53.6238 24.8554 53.7086 24.8782 53.8166 24.8867L53.7933 25.2844H53.6819C53.4585 25.2844 53.2165 25.2299 53.1697 25.0425C52.9861 25.2003 52.7557 25.2911 52.5153 25.3003C52.0874 25.3008 51.841 25.0821 51.841 24.672ZM53.1227 24.7577V24.3352L52.734 24.3506C52.4915 24.3546 52.3375 24.4562 52.3375 24.6319C52.3375 24.8193 52.4685 24.8897 52.6302 24.8897C52.8 24.8713 52.9661 24.8268 53.1227 24.7577Z" fill="white"/>
<path d="M54.3152 23.1327H54.8271V24.2616L54.8159 24.574L55.0155 24.2616L55.7855 23.1327H56.2974V25.2655H55.7855V24.1443L55.7931 23.8321L55.5972 24.1443L54.8271 25.2655H54.3152V23.1327ZM54.5771 22.4256L54.8041 22.1559C54.862 22.2359 54.9376 22.3009 55.0248 22.3457C55.1121 22.3904 55.2085 22.4138 55.3062 22.4138C55.404 22.4138 55.5004 22.3904 55.5876 22.3457C55.6748 22.3009 55.7504 22.2359 55.8083 22.1559L56.0354 22.4256C55.9627 22.5571 55.8568 22.6666 55.7286 22.7428C55.6004 22.819 55.4545 22.8592 55.306 22.8592C55.1574 22.8592 55.0115 22.819 54.8833 22.7428C54.7551 22.6666 54.6492 22.5571 54.5766 22.4256H54.5771Z" fill="white"/>
<path d="M56.8972 23.1327H57.4091V23.9962H58.2909V23.1327H58.803V25.2655H58.2909V24.3956H57.4091V25.2655H56.8972V23.1327Z" fill="white"/>
<path d="M59.2365 23.9335H60.3838V24.3593H59.2365V23.9335Z" fill="white"/>
<path d="M60.822 23.1327H61.3346V24.1483L62.0694 23.1327H62.6234L61.8269 24.117L62.7157 25.2655H62.1117L61.3346 24.1796V25.2655H60.8225L60.822 23.1327Z" fill="white"/>
<path d="M63.0491 23.1327H63.5634V24.2616L63.5517 24.574L63.7518 24.2616L64.5218 23.1327H65.0337V25.2655H64.5218V24.1443L64.5294 23.8321L64.3335 24.1443L63.5637 25.2655H63.0491V23.1327Z" fill="white"/>
<path d="M65.632 23.1327H66.1442V23.9962H67.0259V23.1327H67.5381V25.2655H67.0259V24.3956H66.1442V25.2655H65.632V23.1327Z" fill="white"/>
<path d="M68.0103 24.2186C68.0103 23.5001 68.4338 23.0778 69.0573 23.0778C69.7578 23.0778 70.0814 23.4961 70.0814 24.199C70.0814 24.9334 69.6346 25.3125 69.0265 25.3125C68.376 25.3125 68.0103 24.8984 68.0103 24.2186ZM69.5616 24.199C69.5616 23.8359 69.4615 23.4919 69.0456 23.4919C68.6378 23.4919 68.5261 23.8359 68.5261 24.2032C68.5261 24.5977 68.6532 24.8944 69.0534 24.8944C69.4615 24.8944 69.5616 24.5872 69.5616 24.199Z" fill="white"/>
<path d="M70.9925 23.5311H70.3111V23.1335H72.1821V23.5311H71.5007V25.2655H70.9925V23.5311Z" fill="white"/>
<path d="M72.4121 24.2343C72.4121 23.3643 72.8473 23.082 73.4408 23.082C74.0489 23.082 74.2953 23.4881 74.2953 24.156V24.3436H72.925C72.925 24.8124 73.2138 24.8904 73.5863 24.8904C73.7781 24.8771 73.9686 24.8484 74.156 24.8047L74.2371 25.2071C73.9954 25.2773 73.7453 25.3127 73.4939 25.3125C72.8317 25.3125 72.4121 25.0701 72.4121 24.2343ZM73.7673 23.9962C73.771 23.6758 73.6448 23.4531 73.3901 23.4531C73.1322 23.4531 72.959 23.6445 72.9358 23.9962H73.7673Z" fill="white"/>
<path d="M74.6096 24.672C74.6096 24.1366 75.0867 24.0272 75.4756 24.0232L75.892 24.0195V23.8321C75.892 23.5858 75.7536 23.5271 75.4494 23.5271C75.2515 23.5356 75.0551 23.5672 74.8643 23.6211L74.7602 23.2341C75.0096 23.1364 75.2744 23.0849 75.5417 23.082C76.1232 23.082 76.3924 23.2577 76.3924 23.7148V24.754C76.3924 24.8554 76.4771 24.8782 76.5849 24.8867L76.5619 25.2844H76.4504C76.227 25.2844 75.9851 25.2299 75.9383 25.0425C75.7547 25.2003 75.5243 25.2911 75.2838 25.3003C74.856 25.3008 74.6096 25.0821 74.6096 24.672ZM75.8913 24.7577V24.3352L75.5026 24.3506C75.2601 24.3546 75.106 24.4562 75.106 24.6319C75.106 24.8193 75.2371 24.8897 75.3987 24.8897C75.5685 24.8713 75.7346 24.8268 75.8913 24.7577Z" fill="white"/>
<path d="M77.5227 23.5311H76.8411V23.1335H78.7121V23.5311H78.0307V25.2655H77.5227V23.5311Z" fill="white"/>
<path d="M79.0692 23.1327H79.5774V23.293C79.7334 23.1717 79.9204 23.0985 80.1162 23.082C80.6823 23.082 81.0171 23.3944 81.0171 24.1132C81.0171 25.0038 80.4822 25.3045 79.901 25.3045C79.7736 25.3045 79.6661 25.2931 79.5774 25.2849V26.125H79.0692V23.1327ZM80.4973 24.156C80.4973 23.7501 80.3626 23.5194 79.97 23.5194C79.8338 23.5336 79.7012 23.572 79.5781 23.6328V24.871C79.6902 24.8892 79.8034 24.8996 79.9169 24.9021C80.2933 24.9021 80.4973 24.582 80.4973 24.156Z" fill="white"/>
<path d="M82.3901 23.1327H84.2572V25.2655H83.7453V23.5272H82.9023V25.2655H82.3904L82.3901 23.1327Z" fill="white"/>
<path d="M84.8568 23.1327H85.365V23.293C85.521 23.1717 85.708 23.0985 85.9039 23.082C86.4699 23.082 86.8047 23.3944 86.8047 24.1132C86.8047 25.0038 86.2695 25.3045 85.6883 25.3045C85.5612 25.3045 85.4534 25.2931 85.365 25.2849V26.125H84.8568V23.1327ZM86.285 24.156C86.285 23.7501 86.1503 23.5194 85.7576 23.5194C85.6215 23.5336 85.4888 23.572 85.3658 23.6328V24.871C85.4778 24.8892 85.591 24.8996 85.7045 24.9021C86.081 24.9021 86.285 24.582 86.285 24.156Z" fill="white"/>
<path d="M87.1464 24.2343C87.1464 23.3643 87.5813 23.082 88.175 23.082C88.7832 23.082 89.0296 23.4881 89.0296 24.156V24.3436H87.6592C87.6592 24.8124 87.948 24.8904 88.3205 24.8904C88.5124 24.8771 88.703 24.8484 88.8905 24.8047L88.9713 25.2071C88.7298 25.2773 88.4797 25.3127 88.2284 25.3125C87.5662 25.3125 87.1464 25.0701 87.1464 24.2343ZM88.5013 23.9962C88.505 23.6758 88.3788 23.4531 88.1241 23.4531C87.8662 23.4531 87.693 23.6445 87.6698 23.9962H88.5013Z" fill="white"/>
<path d="M89.4896 23.1327H90.1364L90.6868 24.832L91.2991 23.1327H91.9258V25.2655H91.4446V24.328L91.46 23.8309L90.9633 25.2643H90.3936L89.9432 23.8227L89.9704 24.3267V25.2643H89.4891L89.4896 23.1327Z" fill="white"/>
<path d="M92.5257 23.1327H93.0378V23.8008H93.3266C93.9002 23.8008 94.2735 24.0586 94.2735 24.543C94.2722 24.6425 94.2509 24.7407 94.211 24.8317C94.1712 24.9226 94.1135 25.0044 94.0414 25.072C93.9694 25.1396 93.8846 25.1916 93.7922 25.2248C93.6997 25.2581 93.6015 25.2719 93.5037 25.2655H92.5257V23.1327ZM93.0378 24.1953V24.8663H93.365C93.5997 24.8663 93.7498 24.7532 93.7498 24.5343C93.7498 24.2842 93.5539 24.1945 93.2957 24.1945L93.0378 24.1953Z" fill="white"/>
<path d="M94.5612 24.2343C94.5612 23.3643 94.9962 23.082 95.5899 23.082C96.1983 23.082 96.4447 23.4881 96.4447 24.156V24.3436H95.0731C95.0731 24.8124 95.3617 24.8904 95.7344 24.8904C95.9263 24.8771 96.1168 24.8484 96.3041 24.8047L96.385 25.2071C96.1434 25.2773 95.8934 25.3127 95.6421 25.3125C94.9808 25.3125 94.5612 25.0701 94.5612 24.2343ZM95.9162 23.9962C95.9201 23.6758 95.7937 23.4531 95.539 23.4531C95.2811 23.4531 95.1079 23.6445 95.0849 23.9962H95.9162Z" fill="white"/>
<path d="M96.9047 23.1327H97.4122V23.293C97.5681 23.1717 97.7552 23.0984 97.951 23.082C98.5168 23.082 98.8516 23.3944 98.8516 24.1132C98.8516 25.0038 98.3167 25.3045 97.7355 25.3045C97.6081 25.3045 97.5006 25.2931 97.4122 25.2849V26.125H96.9037L96.9047 23.1327ZM98.3329 24.156C98.3329 23.7501 98.1984 23.5194 97.8055 23.5194C97.6694 23.5335 97.5367 23.5719 97.4137 23.6328V24.871C97.5256 24.8893 97.6387 24.8996 97.7521 24.9021C98.1288 24.9021 98.3329 24.582 98.3329 24.156Z" fill="white"/>
</g>
<defs>
<clipPath id="clip0_12_295">
<rect width="78.9007" height="20.9328" fill="white" transform="translate(20.1204 5.63577)"/>
</clipPath>
</defs>
</svg>
