		<svg width="80" height="22" viewBox="0 0 80 22" fill="none" xmlns="http://www.w3.org/2000/svg">
			<g clip-path="url(#clip0_12_178)">
			<path d="M20.6445 9.62994C20.4243 8.05841 19.8547 6.5583 18.9789 5.24311C18.1031 3.92792 16.944 2.8321 15.5893 2.03859C14.2345 1.24507 12.7197 0.774644 11.1594 0.6629C9.59906 0.551157 8.03413 0.801025 6.58301 1.3936L20.6445 9.62994Z" fill="#D40F7D"/>
			<path d="M6.58228 20.8113C8.03351 21.4041 9.59864 21.6541 11.1592 21.5424C12.7197 21.4307 14.2347 20.9602 15.5896 20.1666C16.9445 19.3729 18.1037 18.2768 18.9794 16.9613C19.8552 15.6459 20.4246 14.1455 20.6445 12.5737L6.58228 20.8113Z" fill="#D40F7D"/>
			<path d="M4.07376 2.86624C2.84221 3.84467 1.84624 5.09468 1.16129 6.52159C0.476347 7.9485 0.120392 9.51488 0.120392 11.1021C0.120392 12.6893 0.476347 14.2557 1.16129 15.6826C1.84624 17.1095 2.84221 18.3595 4.07376 19.3379V2.86624Z" fill="#D40F7D"/>
			<path d="M29.9441 7.75638V6.83676H24.4629V7.75638H26.6515V13.3437H27.7571V7.75638H29.9441ZM35.8857 10.3462V9.92371C35.8857 8.07427 34.955 6.68365 32.9944 6.68365C31.2228 6.68365 29.9277 8.06135 29.9277 10C29.9277 12.0796 31.0837 13.4958 33.3341 13.4958C34.065 13.4945 34.7894 13.3562 35.4708 13.088V11.9665C35.1688 12.2093 34.1262 12.5789 33.3845 12.5789C32.7913 12.5884 32.2186 12.3588 31.792 11.9404C31.3653 11.5221 31.1195 10.9492 31.1084 10.3472L35.8857 10.3462ZM34.7164 9.50391H31.1084C31.1724 8.60915 31.8261 7.60352 32.9824 7.60352C34.0373 7.60452 34.7164 8.47145 34.7164 9.50491V9.50391ZM42.1377 13.3437V6.83875H37.5627V8.71378C37.5627 11.5969 37.4246 12.4641 36.621 12.4641C36.4165 12.4639 36.2131 12.4339 36.017 12.3749V13.3571C36.2349 13.4138 36.4586 13.4439 36.6834 13.4469C38.5561 13.4469 38.6693 11.2651 38.6693 9.60656V7.75638H41.0324V13.3437H42.1377ZM48.9853 10.3462V9.92371C48.9853 8.07427 48.0546 6.68365 46.0952 6.68365C44.3222 6.68365 43.0278 8.06135 43.0278 10C43.0278 12.0796 44.1843 13.4958 46.4344 13.4958C47.1655 13.4945 47.8901 13.3562 48.5717 13.088V11.9665C48.2697 12.2093 47.2246 12.5789 46.4846 12.5789C45.8916 12.5882 45.3192 12.3585 44.8927 11.9401C44.4663 11.5218 44.2207 10.949 44.2098 10.3472L48.9853 10.3462ZM47.8166 9.50391H44.2093C44.2717 8.60915 44.9257 7.60352 46.0822 7.60352C47.1379 7.60452 47.8168 8.47145 47.8168 9.50491L47.8166 9.50391ZM51.0033 13.3437V9.97615H51.0293L54.1966 13.3447H55.6172L52.2612 9.86207L55.2655 6.83875H53.8824L51.0295 9.83746H51.0035V6.83875H49.8979V13.3447L51.0033 13.3437ZM60.8508 13.3437V9.32595C60.8508 7.56599 60.1344 6.68539 58.3496 6.68539C57.6053 6.70948 56.8859 6.96297 56.2871 7.41214V8.36955C56.8072 7.88103 57.4888 7.60807 58.1975 7.60452C59.2664 7.60452 59.7562 8.08919 59.7562 9.04609V9.54318C59.308 9.38023 58.8362 9.29405 58.3601 9.28817C57.4924 9.28817 55.5435 9.63241 55.5435 11.4436C55.5435 12.6943 56.3735 13.4976 57.8446 13.4976C58.787 13.4976 59.415 12.8981 59.8432 12.4641H59.8676V13.3447L60.8508 13.3437ZM59.7567 11.6983C59.2808 12.2078 58.6362 12.5211 57.9467 12.5779C57.3684 12.5779 56.7272 12.1571 56.7272 11.4426C56.7272 10.2307 58.1608 10.1037 58.7256 10.1037C59.0796 10.1196 59.4283 10.1969 59.7567 10.3321V11.6983ZM68.3494 10.0008C68.3494 8.06209 67.0298 6.6844 65.2188 6.6844C64.8053 6.6933 64.3987 6.79386 64.0275 6.97904C63.6563 7.16421 63.3295 7.42953 63.0701 7.75638H63.0456V6.83676H62.0029V15.5168H63.096V12.5036H63.1205C63.3869 12.8073 63.7118 13.0523 64.0753 13.2233C64.4388 13.3943 64.833 13.4877 65.2335 13.4978C67.1307 13.4978 68.3499 11.9287 68.3499 10.0018L68.3494 10.0008ZM67.1682 10.0656C67.1682 11.4804 66.3886 12.5779 65.0677 12.5779C64.6589 12.5737 64.2591 12.4561 63.9114 12.238C63.5637 12.0199 63.2813 11.7095 63.0948 11.3404V8.76449C63.4345 8.25472 63.8484 7.60452 65.0677 7.60452C66.415 7.60452 67.1684 8.72571 67.1684 10.0679L67.1682 10.0656ZM73.7726 7.75638V6.83676H68.2921V7.75638H70.4786V13.3437H71.5849V7.75638H73.7726ZM79.0211 13.3437V9.32595C79.0211 7.56599 78.3047 6.68539 76.5197 6.68539C75.7756 6.70954 75.0565 6.96303 74.4579 7.41214V8.36955C74.978 7.88107 75.6596 7.60812 76.3683 7.60452C77.4362 7.60452 77.9268 8.08919 77.9268 9.04609V9.54318C77.4785 9.38036 77.0068 9.29418 76.5307 9.28817C75.6642 9.28817 73.7153 9.63241 73.7153 11.4436C73.7153 12.6943 74.5448 13.4976 76.0159 13.4976C76.9581 13.4976 77.5863 12.8981 78.0142 12.4641H78.0387V13.3447L79.0211 13.3437ZM77.9278 11.6983C77.4518 12.2078 76.8073 12.521 76.1178 12.5779C75.5395 12.5779 74.8978 12.1571 74.8978 11.4426C74.8978 10.2307 76.3313 10.1037 76.8964 10.1037C77.2505 10.1197 77.5993 10.197 77.9278 10.3321V11.6983Z" fill="white"/>
			</g>
			<defs>
			<clipPath id="clip0_12_178">
			<rect width="78.9007" height="20.9328" fill="white" transform="translate(0.120392 0.635773)"/>
			</clipPath>
			</defs>
			</svg>