<svg width="147" height="43" viewBox="0 0 147 43" fill="none" xmlns="http://www.w3.org/2000/svg">
<path d="M141.378 42.4716H5.4376C2.44828 42.4716 0 40.0813 0 37.1627V5.30896C0 2.39036 2.44828 1.78255e-06 5.4376 1.78255e-06H141.378C144.367 1.78255e-06 146.815 2.39036 146.815 5.30896V37.1627C146.815 40.0813 144.367 42.4716 141.378 42.4716Z" fill="black"/>
<path d="M141.378 0.850758C143.895 0.850758 145.944 2.85091 145.944 5.30896V37.1627C145.944 39.6207 143.895 41.6209 141.378 41.6209H5.4376C2.91999 41.6209 0.871375 39.6207 0.871375 37.1627V5.30896C0.871375 2.85091 2.91999 0.850758 5.4376 0.850758H141.378ZM141.378 1.78255e-06H5.4376C2.44828 1.78255e-06 0 2.39036 0 5.30896V37.1627C0 40.0813 2.44828 42.4716 5.4376 42.4716H141.378C144.367 42.4716 146.815 40.0813 146.815 37.1627V5.30896C146.815 2.39036 144.367 1.78255e-06 141.378 1.78255e-06Z" fill="#A6A6A6"/>
<path d="M51.5674 10.8767C51.5674 11.7633 51.2955 12.4734 50.7599 13.003C50.1441 13.6307 49.342 13.9466 48.3592 13.9466C47.4198 13.9466 46.6178 13.6254 45.9598 12.9923C45.3005 12.3499 44.9716 11.5616 44.9716 10.6179C44.9716 9.67424 45.3005 8.88586 45.9598 8.24878C46.6178 7.61038 47.4198 7.28919 48.3592 7.28919C48.8268 7.28919 49.2727 7.38342 49.6982 7.55862C50.1223 7.73514 50.4676 7.97404 50.7177 8.26869L50.1495 8.82879C49.7131 8.32576 49.1191 8.07757 48.3592 8.07757C47.674 8.07757 47.08 8.31116 46.5756 8.78233C46.0767 9.25483 45.8266 9.86669 45.8266 10.6179C45.8266 11.3691 46.0767 11.9863 46.5756 12.4588C47.08 12.9246 47.674 13.1635 48.3592 13.1635C49.0865 13.1635 49.6982 12.9246 50.1808 12.4535C50.4989 12.1416 50.6797 11.7115 50.7273 11.1621H48.3592V10.3949H51.5184C51.5565 10.5608 51.5674 10.7214 51.5674 10.8767Z" fill="white" stroke="white" stroke-width="0.16" stroke-miterlimit="10"/>
<path d="M56.5795 8.21692H53.612V10.2343H56.2873V11.0015H53.612V13.0189H56.5795V13.8006H52.7719V7.43518H56.5795V8.21692Z" fill="white" stroke="white" stroke-width="0.16" stroke-miterlimit="10"/>
<path d="M60.1166 13.8006H59.2765V8.21692H57.4563V7.43518H61.9382V8.21692H60.1166V13.8006Z" fill="white" stroke="white" stroke-width="0.16" stroke-miterlimit="10"/>
<path d="M65.1818 13.8006V7.43518H66.0205V13.8006H65.1818Z" fill="white" stroke="white" stroke-width="0.16" stroke-miterlimit="10"/>
<path d="M69.7385 13.8006H68.9052V8.21692H67.0781V7.43518H71.5655V8.21692H69.7385V13.8006Z" fill="white" stroke="white" stroke-width="0.16" stroke-miterlimit="10"/>
<path d="M80.051 12.9817C79.408 13.6254 78.6114 13.9466 77.6612 13.9466C76.7055 13.9466 75.9089 13.6254 75.2659 12.9817C74.6243 12.3393 74.3048 11.551 74.3048 10.6179C74.3048 9.68485 74.6243 8.89647 75.2659 8.25409C75.9089 7.61038 76.7055 7.28919 77.6612 7.28919C78.6059 7.28919 79.4026 7.61038 80.0456 8.2594C80.6926 8.90709 81.0121 9.69016 81.0121 10.6179C81.0121 11.551 80.6926 12.3393 80.051 12.9817ZM75.8872 12.4482C76.3711 12.9246 76.9597 13.1635 77.6612 13.1635C78.3572 13.1635 78.9512 12.9246 79.4297 12.4482C79.9123 11.9717 80.157 11.3598 80.157 10.6179C80.157 9.87598 79.9123 9.26412 79.4297 8.78764C78.9512 8.31116 78.3572 8.07226 77.6612 8.07226C76.9597 8.07226 76.3711 8.31116 75.8872 8.78764C75.4046 9.26412 75.1599 9.87598 75.1599 10.6179C75.1599 11.3598 75.4046 11.9717 75.8872 12.4482Z" fill="white" stroke="white" stroke-width="0.16" stroke-miterlimit="10"/>
<path d="M82.1907 13.8006V7.43518H83.2102L86.3803 12.3858H86.417L86.3803 11.1621V7.43518H87.2191V13.8006H86.3436L83.024 8.6058H82.9873L83.024 9.83482V13.8006H82.1907Z" fill="white" stroke="white" stroke-width="0.16" stroke-miterlimit="10"/>
<path d="M74.0982 23.0966C71.5439 23.0966 69.4572 24.9946 69.4572 27.6132C69.4572 30.2106 71.5439 32.1285 74.0982 32.1285C76.6579 32.1285 78.7446 30.2106 78.7446 27.6132C78.7446 24.9946 76.6579 23.0966 74.0982 23.0966ZM74.0982 30.35C72.6966 30.35 71.4908 29.2205 71.4908 27.6132C71.4908 25.9847 72.6966 24.8751 74.0982 24.8751C75.4997 24.8751 76.7109 25.9847 76.7109 27.6132C76.7109 29.2205 75.4997 30.35 74.0982 30.35ZM63.972 23.0966C61.4123 23.0966 59.331 24.9946 59.331 27.6132C59.331 30.2106 61.4123 32.1285 63.972 32.1285C66.5304 32.1285 68.613 30.2106 68.613 27.6132C68.613 24.9946 66.5304 23.0966 63.972 23.0966ZM63.972 30.35C62.5691 30.35 61.3592 29.2205 61.3592 27.6132C61.3592 25.9847 62.5691 24.8751 63.972 24.8751C65.3735 24.8751 66.5793 25.9847 66.5793 27.6132C66.5793 29.2205 65.3735 30.35 63.972 30.35ZM51.9223 24.4809V26.4001H56.6163C56.479 27.4725 56.112 28.2609 55.5492 28.8104C54.864 29.474 53.7969 30.2106 51.9223 30.2106C49.0336 30.2106 46.7715 27.9344 46.7715 25.114C46.7715 22.2937 49.0336 20.0174 51.9223 20.0174C53.4842 20.0174 54.6207 20.6134 55.4594 21.3858L56.8447 20.0334C55.6715 18.9397 54.1109 18.0996 51.9223 18.0996C47.961 18.0996 44.6318 21.2465 44.6318 25.114C44.6318 28.9816 47.961 32.1285 51.9223 32.1285C54.0633 32.1285 55.6715 31.4436 56.9358 30.1589C58.2313 28.894 58.635 27.1155 58.635 25.6794C58.635 25.2335 58.5969 24.8234 58.529 24.4809H51.9223ZM101.195 25.9688C100.813 24.9587 99.6345 23.0966 97.2338 23.0966C94.8548 23.0966 92.8742 24.9269 92.8742 27.6132C92.8742 30.1429 94.8344 32.1285 97.4622 32.1285C99.5869 32.1285 100.813 30.8636 101.317 30.127L99.7405 29.1011C99.2144 29.8523 98.498 30.35 97.4622 30.35C96.4331 30.35 95.6949 29.8894 95.2219 28.9816L101.408 26.4824L101.195 25.9688ZM94.8875 27.4725C94.8344 25.7312 96.2727 24.8393 97.3031 24.8393C98.1106 24.8393 98.7957 25.2335 99.0241 25.7976L94.8875 27.4725ZM89.859 31.8538H91.8927V18.5814H89.859V31.8538ZM86.5285 24.1027H86.4605C86.0038 23.5744 85.1324 23.0966 84.0286 23.0966C81.7122 23.0966 79.5942 25.0822 79.5942 27.6278C79.5942 30.1589 81.7122 32.1285 84.0286 32.1285C85.1324 32.1285 86.0038 31.6467 86.4605 31.1025H86.5285V31.7502C86.5285 33.477 85.5837 34.4047 84.0598 34.4047C82.8174 34.4047 82.0466 33.5287 81.7285 32.7921L79.9599 33.5128C80.4697 34.71 81.8196 36.1832 84.0598 36.1832C86.4442 36.1832 88.4561 34.8135 88.4561 31.4808V23.3714H86.5285V24.1027ZM84.2026 30.35C82.801 30.35 81.6279 29.2046 81.6279 27.6278C81.6279 26.0365 82.801 24.8751 84.2026 24.8751C85.5837 24.8751 86.6726 26.0365 86.6726 27.6278C86.6726 29.2046 85.5837 30.35 84.2026 30.35ZM110.716 18.5814H105.852V31.8538H107.881V26.8248H110.716C112.969 26.8248 115.178 25.2335 115.178 22.7024C115.178 20.1727 112.963 18.5814 110.716 18.5814ZM110.769 24.9787H107.881V20.4276H110.769C112.284 20.4276 113.148 21.6553 113.148 22.7024C113.148 23.7297 112.284 24.9787 110.769 24.9787ZM123.307 23.0714C121.842 23.0714 120.318 23.7032 119.691 25.1034L121.491 25.84C121.878 25.1034 122.591 24.8645 123.344 24.8645C124.396 24.8645 125.463 25.4817 125.479 26.5713V26.7107C125.112 26.5037 124.327 26.1971 123.36 26.1971C121.422 26.1971 119.446 27.2389 119.446 29.1833C119.446 30.9618 121.034 32.1073 122.819 32.1073C124.184 32.1073 124.937 31.506 125.41 30.8066H125.479V31.8325H127.438V26.7412C127.438 24.388 125.638 23.0714 123.307 23.0714ZM123.062 30.3447C122.399 30.3447 121.475 30.0235 121.475 29.2205C121.475 28.1932 122.627 27.799 123.625 27.799C124.518 27.799 124.937 27.9915 125.479 28.245C125.32 29.474 124.237 30.3447 123.062 30.3447ZM134.575 23.3621L132.244 29.1157H132.174L129.764 23.3621H127.577L131.198 31.4025L129.132 35.8766H131.251L136.832 23.3621H134.575ZM116.293 31.8538H118.326V18.5814H116.293V31.8538Z" fill="white"/>
<path d="M11.3483 8.00457C11.0288 8.33107 10.8439 8.8394 10.8439 9.49771V32.9792C10.8439 33.6375 11.0288 34.1459 11.3483 34.4724L11.4271 34.544L24.9042 21.3911V21.0805L11.4271 7.92759L11.3483 8.00457Z" fill="url(#paint0_linear_12_515)"/>
<path d="M29.3916 25.7776L24.9042 21.3911V21.0805L29.397 16.694L29.4976 16.7511L34.8183 19.7068C36.3367 20.5456 36.3367 21.926 34.8183 22.7701L29.4976 25.7205L29.3916 25.7776Z" fill="url(#paint1_linear_12_515)"/>
<path d="M29.4976 25.7206L24.9042 21.2358L11.3483 34.4724C11.8526 34.99 12.675 35.0524 13.6103 34.5348L29.4976 25.7206Z" fill="url(#paint2_linear_12_515)"/>
<path d="M29.4976 16.7511L13.6103 7.93689C12.675 7.42458 11.8526 7.48696 11.3483 8.00458L24.9042 21.2358L29.4976 16.7511Z" fill="url(#paint3_linear_12_515)"/>
<defs>
<linearGradient id="paint0_linear_12_515" x1="23.7076" y1="33.2238" x2="5.8933" y2="14.9778" gradientUnits="userSpaceOnUse">
<stop stop-color="#00A0FF"/>
<stop offset="0.0066" stop-color="#00A1FF"/>
<stop offset="0.2601" stop-color="#00BEFF"/>
<stop offset="0.5122" stop-color="#00D2FF"/>
<stop offset="0.7604" stop-color="#00DFFF"/>
<stop offset="1" stop-color="#00E3FF"/>
</linearGradient>
<linearGradient id="paint1_linear_12_515" x1="36.7955" y1="21.2343" x2="10.4809" y2="21.2343" gradientUnits="userSpaceOnUse">
<stop stop-color="#FFE000"/>
<stop offset="0.4087" stop-color="#FFBD00"/>
<stop offset="0.7754" stop-color="#FFA500"/>
<stop offset="1" stop-color="#FF9C00"/>
</linearGradient>
<linearGradient id="paint2_linear_12_515" x1="26.9998" y1="18.7978" x2="2.84221" y2="-5.94516" gradientUnits="userSpaceOnUse">
<stop stop-color="#FF3A44"/>
<stop offset="1" stop-color="#C31162"/>
</linearGradient>
<linearGradient id="paint3_linear_12_515" x1="7.93596" y1="42.2846" x2="18.7234" y2="31.2358" gradientUnits="userSpaceOnUse">
<stop stop-color="#32A071"/>
<stop offset="0.0685" stop-color="#2DA771"/>
<stop offset="0.4762" stop-color="#15CF74"/>
<stop offset="0.8009" stop-color="#06E775"/>
<stop offset="1" stop-color="#00F076"/>
</linearGradient>
</defs>
</svg>
