<svg width="200" height="35" viewBox="0 0 200 35" fill="none" xmlns="http://www.w3.org/2000/svg">
<g clip-path="url(#clip0_12_607)">
<path opacity="0.5" d="M103.709 12.3578V24.5761L94.358 17.7431L103.709 12.3578Z" fill="white"/>
<path opacity="0.4" d="M85.0558 12.3578V24.5761L94.4064 17.7431L85.0558 12.3578Z" fill="white"/>
<path opacity="0.6" d="M94.4064 0L82.3192 7.03916L94.4064 7.00479V0Z" fill="white"/>
<path opacity="0.4" d="M94.3973 0L106.481 7.03916L94.3973 7.00479V0Z" fill="white"/>
<path opacity="0.5" d="M94.4064 17.7443L82.3455 26.4799H94.4064V17.7443Z" fill="white"/>
<path opacity="0.2" d="M94.3973 17.7443L106.468 26.4799H94.3973V17.7443Z" fill="white"/>
<path opacity="0.2" d="M82.3455 26.4799H94.3974V35L82.3455 26.4799Z" fill="white"/>
<path opacity="0.4" d="M106.432 26.4799H94.3973V35L106.432 26.4799Z" fill="white"/>
<path opacity="0.4" d="M82.3455 7.00684H94.4337V13.945L82.3455 7.00684Z" fill="white"/>
<path opacity="0.6" d="M106.495 7.00684H94.4094V13.945L106.495 7.00684Z" fill="white"/>
<path d="M106.466 26.5163V7.00684L94.4064 13.945L82.3455 7.00684V26.5069L85.0558 28.4065V12.3578L94.4064 17.6952L103.709 12.3422V28.4065L106.466 26.5163Z" fill="white"/>
<path d="M142.016 19.4106C143.031 19.0214 143.923 18.3509 144.594 17.4725C145.425 16.3831 145.866 15.03 145.84 13.643C145.85 12.7486 145.688 11.8611 145.363 11.0321C145.044 10.235 144.549 9.52548 143.919 8.95964C143.246 8.36714 142.463 7.92277 141.617 7.65366C140.632 7.34737 139.608 7.19915 138.579 7.21417H130.769V28.5753H133.503V9.923H138.579C139.775 9.84549 140.961 10.1847 141.948 10.8863C142.651 11.6176 143.046 12.6065 143.046 13.6373C143.046 14.6681 142.651 15.657 141.948 16.3883C140.963 17.0949 139.776 17.4366 138.579 17.3579H135.231V20.0427H139.273L143.113 28.5753H146.122L142.016 19.4106Z" fill="white"/>
<path d="M148.173 7.21411V9.95416H154.394V28.5815H157.134V9.95416H163.384V7.21411H148.173Z" fill="white"/>
<path d="M119.561 7.21411H117.255L109.321 28.5815H112.21L114.708 21.8871L122.228 21.9225L124.724 28.5815H127.585L119.561 7.21411ZM115.608 19.3647L118.402 11.7819L121.254 19.3699L115.608 19.3647Z" fill="white"/>
<path d="M78.2582 20.2603C77.9805 19.5664 77.5776 18.9334 77.0709 18.3951C76.5495 17.8476 75.9418 17.3957 75.2737 17.0589C74.5558 16.703 73.7863 16.4712 72.9958 16.3726L69.2876 15.8956C68.8903 15.8418 68.499 15.7479 68.1194 15.6154C67.7932 15.5018 67.4893 15.3286 67.2223 15.1041C66.97 14.879 66.767 14.6011 66.6266 14.2887C66.4628 13.8981 66.386 13.4746 66.4018 13.0493C66.3832 12.5735 66.4876 12.1012 66.7042 11.6809C66.915 11.2898 67.1876 10.9378 67.5106 10.6394C67.9295 10.2662 68.4246 9.99558 68.959 9.8479C69.5622 9.67467 70.1855 9.58779 70.8116 9.58964C71.5806 9.57996 72.3446 9.71878 73.0643 9.99893C73.5345 10.1828 73.9645 10.4617 74.3292 10.8194C74.6939 11.177 74.9858 11.6062 75.188 12.0818C75.3441 12.4704 75.4488 12.8788 75.4995 13.2961L75.5842 13.8627H78.3147L78.2572 13.1441C78.2077 12.4031 78.0273 11.6778 77.725 11.0039C77.4331 10.3796 77.0568 9.80134 76.6072 9.28656C75.9127 8.49578 75.0463 7.88682 74.0793 7.50985C72.1184 6.69194 69.9375 6.63314 67.938 7.34427C67.0486 7.64718 66.229 8.13564 65.53 8.77937C64.9819 9.28982 64.5211 9.89226 64.1673 10.5613C63.7759 11.3288 63.5816 12.1873 63.6028 13.0545C63.5882 13.8384 63.7252 14.6173 64.006 15.3457C64.2707 16.0011 64.6664 16.5913 65.1671 17.0777C65.6642 17.5701 66.2484 17.959 66.8877 18.2232C67.5595 18.4991 68.2621 18.687 68.9791 18.7825L72.6299 19.2605C73.1092 19.312 73.5767 19.4466 74.0128 19.6584C74.3933 19.8464 74.7408 20.0988 75.0409 20.4051C75.3087 20.6848 75.5197 21.0169 75.6618 21.382C75.8034 21.7363 75.8754 22.1161 75.8734 22.4994C75.8861 22.9753 75.7995 23.4484 75.6195 23.8867C75.4489 24.2665 75.2117 24.6104 74.9199 24.901C74.4271 25.3671 73.8343 25.7058 73.1903 25.8894C72.4494 26.1069 71.6826 26.2159 70.9124 26.2133C70.1775 26.2169 69.4474 26.0911 68.7534 25.8414C68.1211 25.6218 67.5448 25.2581 67.0671 24.7771C66.7341 24.4146 66.4543 24.0037 66.2365 23.5575C66.0135 23.0915 65.8687 22.5897 65.8082 22.0735L65.7316 21.4934H62.9507L63.0152 22.2224C63.0947 23.0532 63.3127 23.8636 63.6593 24.6178C63.989 25.3448 64.429 26.0128 64.9625 26.5965C65.6895 27.3978 66.5905 28.009 67.5912 28.3795C68.658 28.7746 69.7842 28.971 70.9174 28.9596C72.0529 28.9656 73.1823 28.7899 74.2658 28.4388C75.2635 28.1091 76.1764 27.5513 76.9368 26.8069C77.4462 26.2871 77.8671 25.6822 78.1816 25.0177C78.5285 24.2262 78.6977 23.3639 78.6765 22.4953C78.6793 21.7304 78.5365 20.9724 78.2562 20.2645" fill="white"/>
<path d="M190.185 28.6545H192.004L200 7.12146H197.913L191.109 25.5895L184.157 7.12146H168.928V9.08563H175.469V28.6545H177.453V9.08563H182.841L190.185 28.6545Z" fill="white"/>
<path d="M103.709 12.3411V28.4066L106.466 26.5163V7.00476L94.4065 13.945V17.6952L103.709 12.3411Z" fill="white"/>
<path d="M1.71148 17.2235C1.2059 17.0519 0.770818 16.7097 0.476139 16.2518C0.18146 15.794 0.0442952 15.2471 0.0866888 14.699V14.4366C0.0866888 12.7109 1.02912 11.7559 2.92001 11.7559H3.8564C5.35218 11.7559 6.27544 12.4203 6.27544 14.02C6.28472 14.1155 6.27334 14.2119 6.24213 14.3023C6.21091 14.3927 6.16063 14.4748 6.09494 14.5427C6.02925 14.6106 5.9498 14.6625 5.8623 14.6948C5.77481 14.727 5.68147 14.7388 5.58903 14.7292C5.49708 14.7362 5.40476 14.7226 5.31832 14.6894C5.23188 14.6563 5.15334 14.6043 5.08805 14.5371C5.02276 14.4698 4.97222 14.3888 4.93988 14.2996C4.90754 14.2104 4.89414 14.115 4.9006 14.02C4.9006 13.3899 4.4682 13.1108 3.8584 13.1108H2.92102C1.89494 13.1108 1.45851 13.5128 1.45851 14.4366V14.699C1.45032 14.96 1.52457 15.2165 1.67005 15.43C1.81553 15.6434 2.02432 15.8021 2.26485 15.8821L4.92782 16.8725C5.45781 17.0374 5.91704 17.3851 6.22887 17.8576C6.5407 18.3301 6.68629 18.8988 6.64133 19.4688V20.0073C6.67633 20.3963 6.62645 20.7884 6.49534 21.1548C6.36423 21.5213 6.15522 21.8526 5.88374 22.1245C5.61227 22.3964 5.28522 22.602 4.92668 22.726C4.56814 22.85 4.18724 22.8893 3.81204 22.8411H2.41001C0.920277 22.8411 -0.000976674 22.1797 -0.000976674 20.5769C-0.0105005 20.4816 0.000675494 20.3853 0.0317825 20.295C0.0628896 20.2047 0.113132 20.1227 0.178814 20.0551C0.244497 19.9874 0.323979 19.9358 0.411451 19.9039C0.498923 19.872 0.59218 19.8607 0.684413 19.8708C0.775687 19.8641 0.867286 19.8778 0.952977 19.911C1.03867 19.9442 1.11644 19.996 1.181 20.063C1.24556 20.13 1.2954 20.2106 1.32711 20.2993C1.35882 20.388 1.37165 20.4827 1.36476 20.5769C1.36476 21.2247 1.80222 21.4861 2.41001 21.4861H3.81204C4.0087 21.5169 4.20955 21.5002 4.39894 21.4374C4.58833 21.3747 4.76113 21.2675 4.9038 21.1243C5.04647 20.9811 5.15515 20.8058 5.22139 20.612C5.28763 20.4183 5.30964 20.2113 5.28565 20.0073V19.4688C5.31266 19.2088 5.25361 18.947 5.11816 18.7261C4.98271 18.5052 4.77882 18.3383 4.53976 18.2524L1.71148 17.2235Z" fill="white"/>
<path d="M11.5157 14.6761C11.8279 14.6491 12.142 14.6912 12.4371 14.7997C12.7323 14.9081 13.0017 15.0803 13.2273 15.3048C13.4529 15.5294 13.6296 15.8011 13.7455 16.1018C13.8614 16.4024 13.9139 16.7252 13.8995 17.0486V21.9757C13.9057 22.0703 13.8923 22.1653 13.8601 22.2542C13.8278 22.343 13.7775 22.4237 13.7126 22.4908C13.6477 22.5579 13.5696 22.6098 13.4836 22.6431C13.3976 22.6764 13.3057 22.6903 13.2141 22.6839H10.4705C9.10268 22.6839 8.21973 22.0225 8.21973 20.601V19.4158C8.21973 18.0015 9.10268 17.3558 10.4705 17.3558H12.5589V17.0621C12.5767 16.9155 12.5621 16.7667 12.5162 16.6267C12.4703 16.4868 12.3943 16.3595 12.2938 16.2543C12.1934 16.1492 12.0712 16.0689 11.9364 16.0196C11.8017 15.9703 11.6578 15.9532 11.5157 15.9696H9.59155C9.50549 15.9758 9.41912 15.9636 9.33782 15.9338C9.25651 15.904 9.18198 15.8573 9.1189 15.7965C9.05582 15.7357 9.00552 15.6621 8.97113 15.5804C8.93674 15.4986 8.91899 15.4104 8.91899 15.3213C8.91899 15.2322 8.93674 15.144 8.97113 15.0622C9.00552 14.9805 9.05582 14.907 9.1189 14.8462C9.18198 14.7853 9.25651 14.7386 9.33782 14.7088C9.41912 14.679 9.50549 14.6668 9.59155 14.673L11.5157 14.6761ZM12.5589 21.3893V18.6493H10.4705C9.86065 18.6493 9.56332 18.9617 9.56332 19.4512V20.6041C9.56332 21.0654 9.86569 21.3893 10.4705 21.3893H12.5589Z" fill="white"/>
<path d="M23.2259 17.4808C23.2543 17.2817 23.2376 17.0784 23.177 16.8871C23.1165 16.6958 23.0137 16.5217 22.8769 16.3784C22.7401 16.2351 22.573 16.1266 22.3886 16.0615C22.2043 15.9963 22.0079 15.9763 21.8148 16.003H20.9631V22.1287C20.9666 22.2222 20.9518 22.3154 20.9196 22.4027C20.8875 22.4901 20.8385 22.5699 20.7758 22.6372C20.7131 22.7046 20.6378 22.7582 20.5546 22.7948C20.4713 22.8314 20.3818 22.8503 20.2913 22.8503C20.2008 22.8503 20.1113 22.8314 20.028 22.7948C19.9448 22.7582 19.8695 22.7046 19.8068 22.6372C19.7441 22.5699 19.6952 22.4901 19.663 22.4027C19.6308 22.3154 19.616 22.2222 19.6195 22.1287V16.003H17.3557V22.1287C17.3592 22.222 17.3445 22.3151 17.3123 22.4023C17.2802 22.4896 17.2313 22.5692 17.1687 22.6365C17.1061 22.7038 17.0309 22.7573 16.9478 22.7938C16.8647 22.8304 16.7753 22.8492 16.6849 22.8492C16.5946 22.8492 16.5052 22.8304 16.422 22.7938C16.3389 22.7573 16.2638 22.7038 16.2012 22.6365C16.1385 22.5692 16.0897 22.4896 16.0575 22.4023C16.0254 22.3151 16.0106 22.222 16.0141 22.1287V15.3875C16.0047 15.2931 16.0157 15.1977 16.0461 15.1081C16.0765 15.0186 16.1256 14.9371 16.19 14.8694C16.2544 14.8018 16.3325 14.7496 16.4187 14.7168C16.5048 14.6839 16.5969 14.6711 16.6884 14.6793H21.8158C22.1847 14.6317 22.5592 14.671 22.9112 14.7943C23.2632 14.9177 23.5836 15.1218 23.8484 15.3913C24.1132 15.6609 24.3154 15.9889 24.44 16.3508C24.5645 16.7127 24.6081 17.099 24.5675 17.4808V22.1287C24.5675 22.3122 24.497 22.4881 24.3715 22.6178C24.246 22.7474 24.0757 22.8203 23.8982 22.8203C23.7207 22.8203 23.5505 22.7474 23.425 22.6178C23.2995 22.4881 23.229 22.3122 23.229 22.1287L23.2259 17.4808Z" fill="white"/>
<path d="M28.6486 22.8379C27.2808 22.8379 26.4614 22.2662 26.4614 20.9748C26.4614 20.5738 26.6126 20.252 27.1256 20.252C27.6386 20.252 27.7545 20.5738 27.7848 20.9748C27.7999 21.3289 28.1103 21.5913 28.6486 21.5913H29.8581C30.5737 21.5913 30.7945 21.2205 30.7945 20.7581V20.2197C30.8008 20.0567 30.7485 19.8971 30.6476 19.7717C30.5467 19.6463 30.4044 19.564 30.2482 19.5407L27.9067 18.8658C27.4969 18.7738 27.1335 18.5308 26.8844 18.1822C26.6353 17.8336 26.5176 17.4032 26.5531 16.9714V16.6038C26.5531 15.1874 27.3272 14.5209 28.8169 14.5209H29.6495C31.0213 14.5209 31.8437 15.0885 31.8437 16.382C31.8437 16.7829 31.6956 17.1047 31.1845 17.1047C30.6735 17.1047 30.5465 16.7829 30.5143 16.382C30.4992 16.0268 30.1998 15.7665 29.6646 15.7665H28.8169C28.0871 15.7665 27.8644 16.1362 27.8644 16.5996V16.9672C27.8613 17.1294 27.9148 17.2872 28.0152 17.4119C28.1155 17.5366 28.2559 17.6198 28.4107 17.6463L30.737 18.3076C31.1534 18.3944 31.5241 18.6373 31.7775 18.9896C32.031 19.3418 32.1493 19.7785 32.1098 20.2155V20.754C32.1098 22.1714 31.3206 22.8369 29.8581 22.8369L28.6486 22.8379Z" fill="white"/>
<path d="M35.2354 19.8812C35.2075 20.0803 35.2245 20.2833 35.2852 20.4744C35.3459 20.6655 35.4487 20.8395 35.5854 20.9826C35.7221 21.1258 35.8891 21.2343 36.0732 21.2996C36.2573 21.3649 36.4535 21.3853 36.6465 21.359H38.4336V15.2312C38.4223 15.1368 38.4316 15.041 38.461 14.9509C38.4904 14.8608 38.539 14.7787 38.6033 14.7106C38.6676 14.6426 38.7459 14.5904 38.8324 14.5579C38.9189 14.5254 39.0113 14.5135 39.1029 14.523C39.1939 14.5164 39.2851 14.5303 39.3704 14.5638C39.4556 14.5973 39.5328 14.6495 39.5966 14.7169C39.6603 14.7842 39.7092 14.8651 39.7397 14.9539C39.7702 15.0428 39.7816 15.1373 39.7732 15.2312V21.9777C39.7824 22.0715 39.7715 22.1662 39.7412 22.2552C39.711 22.3441 39.6621 22.4251 39.5981 22.4923C39.5341 22.5596 39.4565 22.6114 39.3709 22.6441C39.2853 22.6768 39.1938 22.6897 39.1029 22.6817H36.6465C36.2774 22.7299 35.9025 22.691 35.55 22.5681C35.1974 22.4451 34.8764 22.2413 34.6111 21.9718C34.3457 21.7023 34.1429 21.3742 34.0178 21.0121C33.8927 20.6501 33.8486 20.2634 33.8888 19.8812V15.2312C33.8792 15.1373 33.8897 15.0425 33.9196 14.9533C33.9495 14.8642 33.998 14.7829 34.0617 14.7153C34.1254 14.6477 34.2027 14.5954 34.2881 14.5622C34.3736 14.529 34.465 14.5156 34.5561 14.523C34.648 14.5131 34.7408 14.5246 34.8278 14.5569C34.9147 14.5891 34.9935 14.6412 35.0583 14.7093C35.1231 14.7773 35.1722 14.8596 35.202 14.9499C35.2318 15.0403 35.2415 15.1364 35.2304 15.2312L35.2354 19.8812Z" fill="white"/>
<path d="M46.5284 17.4807C46.5566 17.2809 46.5395 17.0771 46.4784 16.8854C46.4173 16.6937 46.3139 16.5193 46.1763 16.3759C46.0388 16.2326 45.8709 16.1243 45.6858 16.0595C45.5008 15.9948 45.3037 15.9754 45.1102 16.0028H43.3252V22.1286C43.3365 22.2232 43.3271 22.3193 43.2977 22.4096C43.2682 22.4999 43.2194 22.5822 43.1549 22.6504C43.0904 22.7185 43.0118 22.7708 42.9251 22.8032C42.8384 22.8357 42.7457 22.8475 42.6539 22.8379C42.5629 22.8443 42.4716 22.8303 42.3864 22.7966C42.3012 22.763 42.2241 22.7107 42.1605 22.6432C42.0968 22.5758 42.0481 22.4948 42.0177 22.4059C41.9874 22.3171 41.9761 22.2225 41.9846 22.1286V15.3873C41.975 15.2933 41.9855 15.1983 42.0155 15.109C42.0455 15.0197 42.0941 14.9383 42.1581 14.8707C42.222 14.803 42.2996 14.7508 42.3853 14.7177C42.471 14.6846 42.5627 14.6714 42.6539 14.6792H45.1102C45.4794 14.6309 45.8544 14.6697 46.207 14.7928C46.5596 14.9158 46.8805 15.1198 47.1459 15.3894C47.4112 15.659 47.6139 15.9873 47.7388 16.3495C47.8637 16.7117 47.9075 17.0985 47.8669 17.4807V22.1286C47.8773 22.2228 47.8672 22.3181 47.8376 22.4077C47.8079 22.4973 47.7594 22.579 47.6954 22.6469C47.6315 22.7148 47.5537 22.7671 47.4678 22.8001C47.3819 22.8331 47.29 22.846 47.1986 22.8379C47.1069 22.8476 47.0143 22.8357 46.9276 22.8033C46.8409 22.7708 46.7624 22.7185 46.6979 22.6504C46.6335 22.5822 46.5848 22.4999 46.5554 22.4095C46.5261 22.3192 46.5168 22.2232 46.5284 22.1286V17.4807Z" fill="white"/>
<path d="M55.6916 23.5284C55.7299 23.9236 55.6846 24.3226 55.5587 24.6978C55.4329 25.073 55.2295 25.4153 54.9626 25.7011C54.6958 25.9869 54.372 26.2093 54.0136 26.3528C53.6553 26.4962 53.271 26.5574 52.8875 26.532H51.2214C51.1341 26.5422 51.0456 26.5323 50.9625 26.5028C50.8794 26.4734 50.8036 26.4253 50.7407 26.3619C50.6778 26.2985 50.6293 26.2214 50.5988 26.1363C50.5683 26.0511 50.5564 25.96 50.5642 25.8696C50.5589 25.7799 50.5724 25.69 50.6039 25.6062C50.6353 25.5223 50.6838 25.4464 50.7462 25.3837C50.8086 25.3211 50.8833 25.2731 50.9653 25.243C51.0473 25.2129 51.1347 25.2014 51.2214 25.2093H52.8875C53.8954 25.2093 54.352 24.5157 54.352 23.5284V22.6817H52.5458C52.1772 22.7298 51.8029 22.6907 51.451 22.5675C51.0992 22.4442 50.7791 22.2399 50.5149 21.9701C50.2506 21.7003 50.0492 21.372 49.9257 21.0099C49.8022 20.6479 49.76 20.2616 49.8022 19.8802V17.6932C49.7613 17.2979 49.8044 16.8981 49.9284 16.5217C50.0524 16.1453 50.2543 15.8014 50.52 15.5138C50.7858 15.2263 51.1091 15.0022 51.4673 14.8569C51.8255 14.7117 52.2101 14.6489 52.5942 14.673H55.0072C55.0992 14.6649 55.1918 14.6776 55.2786 14.7104C55.3653 14.7432 55.4441 14.7953 55.5093 14.8628C55.5745 14.9304 55.6246 15.0119 55.6561 15.1017C55.6876 15.1914 55.6997 15.2871 55.6916 15.3822V23.5284ZM52.5942 16.0029C51.5943 16.0029 51.1468 16.7132 51.1468 17.6953V19.8823C51.1164 20.0807 51.1313 20.2837 51.1904 20.475C51.2495 20.6664 51.351 20.8408 51.487 20.9844C51.6229 21.128 51.7894 21.2367 51.9733 21.302C52.1571 21.3672 52.3532 21.3871 52.5458 21.3601H54.352V16.005L52.5942 16.0029Z" fill="white"/>
</g>
<defs>
<clipPath id="clip0_12_607">
<rect width="200" height="35" fill="white"/>
</clipPath>
</defs>
</svg>
