<svg width="73" height="32" viewBox="0 0 73 32" fill="none" xmlns="http://www.w3.org/2000/svg">
<path d="M32.1197 15.8434C32.1348 24.5733 24.9472 31.6824 16.0957 31.6924C7.19766 31.7024 0.0125464 24.6337 1.62667e-05 15.8575C-0.0124844 7.10167 7.18148 -0.00229833 16.0585 5.57793e-07C24.9354 0.00229945 32.1045 7.07446 32.1197 15.8434ZM16.7145 4.00848V3.85424C16.7145 3.57297 16.7062 3.29137 16.7179 3.01058C16.7238 2.86799 16.6743 2.83138 16.537 2.82795C15.6083 2.80134 14.6793 2.86984 13.765 3.03235C11.276 3.48305 9.05639 4.51117 7.21001 6.21939C3.66385 9.50014 2.27911 13.5391 3.1005 18.2713C3.54274 20.8192 4.73855 23.02 6.56267 24.8706C8.84931 27.1906 11.6386 28.5045 14.9053 28.8176C16.3796 28.9589 17.8436 28.872 19.2767 28.5038C23.496 27.4199 26.5232 24.9151 28.319 20.9929C29.1367 19.207 29.4589 17.3143 29.3917 15.3569C29.3894 15.2916 29.3778 15.2266 29.3708 15.1642H20.0145V16.3577H28.1579C28.0503 21.4915 23.9733 26.8665 17.5102 27.6008C10.8363 28.3591 4.9855 23.6749 4.17924 17.3597C3.79354 14.3388 4.46256 11.5406 6.26825 9.06911C8.82274 5.57239 12.3567 3.96357 16.7145 4.00848ZM19.9892 21.3177H16.7133V16.9813C16.7133 14.4258 16.7141 11.8702 16.7158 9.31469C16.716 9.18516 16.686 9.13613 16.5455 9.14105C16.2461 9.15155 15.946 9.15039 15.6466 9.14143C15.5166 9.13753 15.4811 9.176 15.4812 9.30465C15.4845 13.6593 15.4855 18.0139 15.4843 22.3685C15.4843 22.4194 15.4893 22.4704 15.4917 22.5176H19.9892V21.3177ZM11.1715 12.7561C11.6635 12.7579 12.1361 12.5669 12.4854 12.2249C12.8348 11.883 13.0323 11.4182 13.0345 10.9326C13.0375 9.91621 12.2108 9.09894 11.1721 9.091C10.1589 9.08328 9.31897 9.91304 9.31658 10.924C9.31745 11.4094 9.51312 11.8747 9.86076 12.218C10.2084 12.5614 10.6797 12.755 11.1715 12.7561Z" fill="white"/>
<path d="M69.9054 11.2214C69.7066 11.0094 69.5196 10.7974 69.3193 10.5986C68.5192 9.80458 67.5423 9.36011 66.4296 9.18551C65.7113 9.0741 64.9823 9.04675 64.2575 9.10403C63.5312 9.15964 62.821 9.29318 62.1491 9.5868C60.9831 10.0965 60.2435 10.9843 59.8144 12.1474C59.5698 12.8103 59.441 13.4975 59.368 14.1977C59.2792 15.0513 59.2622 15.9108 59.3173 16.7672C59.3816 17.7752 59.526 18.7688 59.9432 19.7046C60.4775 20.9029 61.394 21.6689 62.6592 22.0371C63.7193 22.3455 64.8035 22.3776 65.8964 22.3039C66.7281 22.2506 67.5509 22.104 68.3489 21.8668C68.5004 21.8212 68.5548 21.754 68.5537 21.5934C68.5461 20.5217 68.5499 19.4499 68.5496 18.3782C68.5496 18.1798 68.5488 18.1795 68.3455 18.1795C67.1761 18.1795 66.0068 18.1795 64.8374 18.1795H64.65V14.3977H72.9251C72.9278 14.4504 72.9326 14.5019 72.9327 14.5533C72.933 17.7588 72.9341 20.9643 72.936 24.1697C72.9362 24.2836 72.8944 24.3441 72.8038 24.4018C71.9467 24.9483 71.009 25.3135 70.0357 25.5946C69.028 25.8809 67.9968 26.0793 66.9539 26.1873C66.0608 26.2861 65.1617 26.3216 64.2634 26.2935C62.7256 26.2424 61.2194 26.0173 59.7916 25.4153C57.7083 24.537 56.3038 23.0211 55.4986 20.9463C55.1552 20.0615 54.9469 19.1441 54.8153 18.2066C54.6578 17.084 54.6299 15.9559 54.678 14.8274C54.7401 13.3698 54.9793 11.9414 55.5326 10.5781C56.5226 8.13885 58.3074 6.55207 60.8409 5.77399C61.6434 5.52752 62.4659 5.38027 63.3027 5.30211C64.119 5.22327 64.9402 5.20576 65.7593 5.24973C67.3347 5.33892 68.8602 5.63385 70.2775 6.35445C71.2714 6.85979 72.1126 7.54504 72.7785 8.43508C72.8264 8.4991 72.8742 8.54858 72.7855 8.62822C71.8343 9.48417 70.8852 10.3423 69.938 11.2025C69.9277 11.2097 69.9168 11.216 69.9054 11.2214Z" fill="white"/>
<path d="M39.3387 15.7578C39.3387 12.4212 39.3387 9.08448 39.3387 5.74781C39.3387 5.5339 39.3387 5.53369 39.5505 5.53369C41 5.53369 42.4496 5.53369 43.8992 5.53369C44.0997 5.53369 44.0997 5.53398 44.0997 5.72898C44.0997 11.0783 44.0997 16.4277 44.0997 21.7771C44.0997 21.8304 44.0864 21.8889 44.1045 21.9355C44.1255 21.98 44.1627 22.0151 44.2086 22.0339C44.251 22.0508 44.3054 22.0381 44.3546 22.0381H53.8329C54.0422 22.0381 54.0426 22.038 54.0426 22.24C54.0426 23.4331 54.0403 24.6262 54.0458 25.8193C54.0465 25.9648 54.0093 26.0069 53.8571 26.0068C49.0762 26.0026 44.2953 26.0025 39.5143 26.0064C39.3692 26.0064 39.3358 25.9635 39.3359 25.826C39.3396 22.47 39.3405 19.1139 39.3387 15.7578Z" fill="white"/>
</svg>
