<svg width="135" height="32" viewBox="0 0 135 32" fill="none" xmlns="http://www.w3.org/2000/svg">
<path d="M21.3164 16.6817C21.3317 15.4794 21.6509 14.3005 22.2443 13.2547C22.8378 12.2089 23.6861 11.3303 24.7104 10.7005C24.0597 9.77098 23.2013 9.00602 22.2033 8.46637C21.2052 7.92672 20.0951 7.62725 18.9611 7.59175C16.5424 7.33965 14.1972 9.04672 12.964 9.04672C11.7079 9.04672 9.81065 7.62344 7.7665 7.66666C6.44463 7.70918 5.15631 8.09339 4.02707 8.78184C2.89783 9.47029 1.96618 10.4395 1.32288 11.5951C-1.46316 16.4195 0.615563 23.5085 3.28348 27.4081C4.61888 29.3168 6.179 31.4489 8.22171 31.374C10.2198 31.2904 10.9588 30.0991 13.3775 30.0991C15.7962 30.0991 16.4675 31.3739 18.5505 31.3264C20.6955 31.2904 22.0453 29.4076 23.3346 27.4801C24.2943 26.1182 25.0324 24.6129 25.5214 23.0201C24.2756 22.4932 23.2125 21.6111 22.4647 20.4839C21.717 19.3567 21.3176 18.0343 21.3164 16.6817Z" fill="white"/>
<path d="M17.3808 5.02899C18.5507 3.62581 19.127 1.82154 18.987 0C17.2007 0.187665 15.5507 1.04149 14.3657 2.39133C13.1962 3.72294 12.6035 5.46449 12.7177 7.23305C13.6111 7.24226 14.4948 7.0487 15.3026 6.66692C16.1103 6.28515 16.8209 5.72512 17.3808 5.02899Z" fill="white"/>
<path d="M45.915 21.29H39.0997L37.4618 26.1303H34.5735L41.033 8.24146H44.0336L50.4917 26.1303H47.5544L45.915 21.29ZM39.8027 19.0586H45.2077L42.5427 11.2119H42.4721L39.8027 19.0586Z" fill="white"/>
<path d="M64.4405 19.6045C64.4405 23.6568 62.271 26.2614 58.9966 26.2614C58.1675 26.3044 57.343 26.1133 56.6175 25.7098C55.8919 25.3062 55.2946 24.7066 54.8939 23.9795H54.8319V30.439H52.1539V13.0817H54.7469V15.2512H54.7959C55.2152 14.5275 55.8229 13.931 56.5542 13.5251C57.2855 13.1193 58.1131 12.9192 58.949 12.9463C62.258 12.9463 64.4405 15.5623 64.4405 19.6045ZM61.689 19.6045C61.689 16.964 60.3233 15.2281 58.2417 15.2281C56.1961 15.2281 54.8204 17 54.8204 19.6045C54.8204 22.2321 56.1961 23.9925 58.2417 23.9925C60.3205 23.9925 61.689 22.2681 61.689 19.6045Z" fill="white"/>
<path d="M78.7957 19.6045C78.7957 23.6568 76.6262 26.2614 73.3518 26.2614C72.5232 26.3039 71.6993 26.1125 70.9743 25.709C70.2493 25.3055 69.6525 24.7061 69.252 23.9795H69.19V30.439H66.5149V13.0817H69.1079V15.2512H69.1569C69.5762 14.5275 70.1838 13.931 70.9151 13.5251C71.6464 13.1193 72.4741 12.9192 73.31 12.9463C76.6132 12.9463 78.7957 15.5623 78.7957 19.6045ZM76.0428 19.6045C76.0428 16.964 74.6785 15.2281 72.5969 15.2281C70.5513 15.2281 69.1756 17 69.1756 19.6045C69.1756 22.2321 70.5513 23.9925 72.5969 23.9925C74.6785 23.9925 76.0428 22.2638 76.0428 19.6045Z" fill="white"/>
<path d="M80.9624 8.23566H83.6418V26.1303H80.9624V8.23566Z" fill="white"/>
<path d="M97.5806 22.294C97.2204 24.6609 94.9141 26.2858 91.9624 26.2858C88.168 26.2858 85.8141 23.7447 85.8141 19.6665C85.8141 15.5882 88.1809 12.9218 91.85 12.9218C95.4514 12.9218 97.7275 15.401 97.7275 19.3553V20.2729H88.518V20.4343C88.4385 21.3315 88.7185 22.2236 89.2967 22.9144C89.8748 23.6052 90.7036 24.038 91.6008 24.1178C91.7445 24.1301 91.8889 24.1334 92.033 24.1279C92.6644 24.1857 93.2977 24.0386 93.839 23.7083C94.3802 23.378 94.8007 22.882 95.038 22.294H97.5806ZM88.5295 18.4045H95.0509C95.0747 17.9927 95.017 17.5802 94.8812 17.1907C94.7453 16.8012 94.534 16.4423 94.2593 16.1346C93.9846 15.8268 93.6519 15.5763 93.2803 15.3972C92.9086 15.2182 92.5054 15.1142 92.0935 15.0912C92.0128 15.0912 91.9321 15.0912 91.8515 15.0912C91.4179 15.0886 90.988 15.1714 90.5864 15.3348C90.1848 15.4983 89.8193 15.7393 89.5109 16.044C89.2024 16.3487 88.9569 16.7112 88.7886 17.1108C88.6202 17.5104 88.5322 17.9392 88.5295 18.3728V18.4045Z" fill="white"/>
<path d="M109.719 26.1303V10.627H104.245V8.23566H117.967V10.627H112.496V26.1303H109.719Z" fill="white"/>
<path d="M125.29 26.1303L118.904 8.23566H121.917L126.789 23H126.864L131.748 8.23566H134.711L128.327 26.1303H125.29Z" fill="white"/>
</svg>
