<svg width="135" height="23" viewBox="0 0 135 23" fill="none" xmlns="http://www.w3.org/2000/svg">
<g clip-path="url(#clip0_12_577)">
<path d="M7.33293 7.38611C9.52425 7.38611 11.3511 8.49745 12.2018 9.69858V7.68613H15.5498V22.7H13.2756C13.1346 22.7 12.995 22.6726 12.8647 22.6194C12.7344 22.5662 12.616 22.4881 12.5163 22.3897C12.4165 22.2913 12.3375 22.1745 12.2835 22.0459C12.2296 21.9173 12.2018 21.7795 12.2018 21.6403V20.6897C11.3511 21.8887 9.52425 23 7.33293 23C3.16575 23 0 19.4877 0 15.1932C0 10.8986 3.16575 7.38638 7.33293 7.38638M7.94178 10.3897C5.23314 10.3897 3.4074 12.4912 3.4074 15.1937C3.4074 17.8963 5.23314 19.9996 7.94178 19.9996C10.6504 19.9996 12.4778 17.8968 12.4778 15.1948C12.4778 12.4928 10.6512 10.3908 7.94178 10.3908" fill="white"/>
<path d="M19.3498 7.68665H22.6978V9.72841C23.6099 8.22753 25.3438 7.38663 27.3229 7.38663C30.8521 7.38663 33.1349 9.84884 33.1349 13.6627V22.7H30.861C30.5762 22.6999 30.3031 22.5882 30.1018 22.3895C29.9004 22.1908 29.7873 21.9213 29.7872 21.6403V14.2031C29.7872 11.8317 28.5695 10.39 26.6233 10.39C24.4018 10.39 22.6978 12.1014 22.6978 15.3136V22.7H20.4228C20.1381 22.6998 19.8652 22.588 19.664 22.3893C19.4628 22.1906 19.3498 21.9212 19.3498 21.6403V7.68665Z" fill="white"/>
<path d="M43.1155 7.3861C45.306 7.3861 47.1328 8.49744 47.9844 9.69857V0.180115H51.3302V22.7H49.0574C48.9164 22.7 48.7768 22.6725 48.6466 22.6192C48.5164 22.566 48.3981 22.4879 48.2985 22.3895C48.1988 22.2911 48.1198 22.1743 48.0659 22.0457C48.012 21.9172 47.9843 21.7794 47.9844 21.6403V20.6897C47.1328 21.8887 45.306 23 43.1155 23C38.9464 23 35.7817 19.4877 35.7817 15.1932C35.7817 10.8986 38.9464 7.38637 43.1155 7.38637M43.7246 10.3897C41.0168 10.3897 39.1908 12.4912 39.1908 15.1937C39.1908 17.8963 41.0168 19.9985 43.7246 19.9985C46.4324 19.9985 48.2571 17.8947 48.2571 15.1934C48.2571 12.4922 46.4313 10.3897 43.7246 10.3897Z" fill="white"/>
<path d="M55.1323 7.68665H58.4803V10.3591C58.7732 9.53722 59.3164 8.82483 60.0355 8.31954C60.7547 7.81425 61.6146 7.54079 62.4974 7.53664C62.9366 7.53349 63.375 7.57375 63.8061 7.65681V11.0494C63.2667 10.8699 62.7013 10.7787 62.1321 10.7793C60.2151 10.7793 58.4795 12.3715 58.4795 15.3741V22.7013H56.2056C55.921 22.701 55.6481 22.5893 55.4469 22.3906C55.2457 22.1919 55.1327 21.9225 55.1326 21.6417L55.1323 7.68665Z" fill="white"/>
<path d="M72.8292 23C71.2672 22.9881 69.7438 22.5202 68.4509 21.6551C67.158 20.7901 66.1535 19.5667 65.5641 18.1392C64.9746 16.7117 64.8267 15.144 65.1388 13.6336C65.4509 12.1232 66.2091 10.7378 67.3179 9.65199C68.4266 8.56621 69.8363 7.82864 71.3692 7.53226C72.9021 7.23588 74.4896 7.39396 75.9316 7.98657C77.3736 8.57918 78.6055 9.57979 79.4721 10.8623C80.3387 12.1448 80.8012 13.6517 80.8013 15.1932C80.8092 16.2257 80.6079 17.2493 80.2094 18.2039C79.8108 19.1586 79.2229 20.025 78.4802 20.7523C77.7375 21.4796 76.855 22.053 75.8846 22.439C74.9142 22.825 73.8754 23.0158 72.8292 23ZM72.8292 19.9386C75.5068 19.9386 77.3941 17.8656 77.3941 15.1943C77.3941 12.5229 75.5068 10.4497 72.8292 10.4497C70.1217 10.4497 68.2352 12.5223 68.2352 15.1943C68.2352 17.8662 70.1217 19.9386 72.8292 19.9386Z" fill="white"/>
<path d="M85.1875 4.41391C84.5943 4.41391 84.0255 4.18139 83.6061 3.76751C83.1867 3.35362 82.951 2.79228 82.951 2.20695C82.951 1.62163 83.1867 1.06029 83.6061 0.646401C84.0255 0.232516 84.5943 0 85.1875 0C85.7806 0 86.3494 0.232516 86.7688 0.646401C87.1882 1.06029 87.4239 1.62163 87.4239 2.20695C87.4239 2.79228 87.1882 3.35362 86.7688 3.76751C86.3494 4.18139 85.7806 4.41391 85.1875 4.41391ZM83.5151 7.68612H86.8612V22.7H84.5883C84.3037 22.6998 84.0307 22.588 83.8295 22.3894C83.6282 22.1907 83.5151 21.9213 83.5151 21.6403V7.68612Z" fill="white"/>
<path d="M96.9446 7.3861C99.1356 7.3861 100.962 8.49744 101.814 9.69857V0.180115H105.162V22.7H102.889C102.748 22.7001 102.608 22.6728 102.478 22.6196C102.347 22.5664 102.229 22.4884 102.129 22.3899C102.03 22.2915 101.95 22.1746 101.897 22.046C101.843 21.9174 101.815 21.7795 101.815 21.6403V20.6897C100.963 21.8887 99.1367 23 96.9456 23C92.7782 23 89.6135 19.4877 89.6135 15.1932C89.6135 10.8986 92.7782 7.38637 96.9456 7.38637M97.5545 10.3897C94.8477 10.3897 93.022 12.4912 93.022 15.1937C93.022 17.8963 94.8477 19.9985 97.5545 19.9985C100.261 19.9985 102.087 17.8947 102.087 15.1934C102.087 12.4922 100.261 10.3895 97.5523 10.3895" fill="white"/>
<path d="M110.98 9.59625H107.705V7.60405H110.98V3.40622H113.122V7.60405H117.589V9.59625H113.122V18.3234C113.122 20.1648 113.948 20.8895 115.661 20.8895C116.319 20.8927 116.972 20.7808 117.589 20.5591V22.461C116.867 22.7331 116.098 22.8664 115.324 22.854C112.724 22.854 110.98 21.3734 110.98 18.5045V9.59625Z" fill="white"/>
<path d="M135 7.60352L127.841 22.7018H126.158L118.997 7.60352H121.384L126.984 19.5911L132.583 7.60352H135Z" fill="white"/>
</g>
<defs>
<clipPath id="clip0_12_577">
<rect width="135" height="23" fill="white"/>
</clipPath>
</defs>
</svg>
